<?xml version="1.0" encoding="UTF-8" standalone="no"?>
<!-- Created with Inkscape (http://www.inkscape.org/) -->

<svg
   version="1.1"
   id="svg2"
   width="294.82666"
   height="319.85333"
   viewBox="0 0 294.82666 319.85333"
   xmlns:xlink="http://www.w3.org/1999/xlink"
   xmlns="http://www.w3.org/2000/svg"
   xmlns:svg="http://www.w3.org/2000/svg">
  <defs
     id="defs6">
    <linearGradient
       x1="0"
       y1="0"
       x2="1"
       y2="0"
       gradientUnits="userSpaceOnUse"
       gradientTransform="matrix(169.08266,0,0,169.08266,62.869865,127.712)"
       spreadMethod="pad"
       id="linearGradient18">
      <stop
         style="stop-opacity:1;stop-color:#6ec72e"
         offset="0"
         id="stop14" />
      <stop
         style="stop-opacity:1;stop-color:#008350"
         offset="1"
         id="stop16" />
    </linearGradient>
    <symbol
       id="symbol1128">
      <path
         d="M -5.2083332e-4,308.69708 H 1.4411466 v 10.97083 H -5.2083332e-4 v -10.97083"
         style="fill:#231f20;fill-opacity:1;fill-rule:nonzero;stroke:none;stroke-width:0.133333"
         id="path28" />
    </symbol>
    <symbol
       id="symbol1136">
      <path
         d="M 4.0369732,319.66791 V 308.68406 H 11.97344 v 1.29843 H 5.4901065 v 3.35469 H 11.54896 v 1.3 H 5.4901065 v 3.73074 H 12.22188 v 1.29999 H 4.0369732"
         style="fill:#231f20;fill-opacity:1;fill-rule:nonzero;stroke:none;stroke-width:0.133333"
         id="path30" />
    </symbol>
    <symbol
       id="symbol1147">
      <path
         d="m 46.762532,315.81322 1.452533,0.38126 c -0.293733,1.17604 -0.851066,2.08801 -1.637999,2.71354 -0.803067,0.62396 -1.760934,0.94531 -2.906267,0.94531 -1.180667,0 -2.151467,-0.2349 -2.880667,-0.73177 -0.747466,-0.4724 -1.3208,-1.18282 -1.7,-2.07916 -0.378133,-0.92084 -0.5688,-1.9 -0.5688,-2.95052 0,-1.13439 0.212534,-2.13699 0.638534,-2.98907 0.447466,-0.84948 1.060933,-1.4974 1.876133,-1.93751 0.804133,-0.43176 1.689467,-0.65572 2.6604,-0.65572 1.095733,0 2.016133,0.27031 2.761467,0.83334 0.751999,0.5677 1.274933,1.34634 1.567599,2.36614 l -1.424399,0.32291 c -0.264134,-0.79843 -0.615067,-1.37187 -1.113067,-1.74115 -0.472933,-0.35468 -1.084933,-0.54686 -1.8172,-0.54686 -0.849467,0 -1.5604,0.2026 -2.1244,0.61458 -0.567733,0.39062 -0.9704,0.94791 -1.181333,1.61719 -0.235867,0.68697 -0.356667,1.38541 -0.356667,2.11615 0,0.92552 0.144267,1.7479 0.414533,2.43072 0.270267,0.71354 0.697334,1.22917 1.263467,1.57188 0.5672,0.33906 1.205733,0.50572 1.8652,0.50572 0.8156,0 1.499467,-0.23228 2.079067,-0.70832 0.5448,-0.45834 0.919333,-1.15314 1.131866,-2.07866"
         style="fill:#231f20;fill-opacity:1;fill-rule:nonzero;stroke:none;stroke-width:0.133333"
         id="path36" />
    </symbol>
    <symbol
       id="symbol1161">
      <path
         d="m 100.59173,316.13718 1.36867,-0.10677 c 0.0699,0.54428 0.21093,0.99219 0.44746,1.33489 0.2348,0.34948 0.614,0.64688 1.1124,0.8547 0.49374,0.21354 1.06,0.30781 1.67814,0.30781 0.5636,0 1.04946,-0.0677 1.4756,-0.23177 0.42386,-0.16667 0.74106,-0.38022 0.94213,-0.67188 0.20213,-0.3 0.3156,-0.60156 0.3156,-0.92968 0,-0.3547 -0.10307,-0.6573 -0.30253,-0.91199 -0.2032,-0.25052 -0.51827,-0.47343 -0.9928,-0.65052 -0.28427,-0.11457 -0.9328,-0.28645 -1.9604,-0.53489 -0.9932,-0.24375 -1.70054,-0.47031 -2.10147,-0.68646 -0.5324,-0.27084 -0.924,-0.60937 -1.18187,-1.02396 -0.25933,-0.40417 -0.37493,-0.85469 -0.37493,-1.37188 0,-0.54166 0.15,-1.05729 0.4708,-1.53229 0.30467,-0.49427 0.76507,-0.85052 1.36667,-1.10937 0.61506,-0.23334 1.27653,-0.37708 2.02186,-0.37708 0.81507,0 1.52347,0.14374 2.15987,0.39844 0.61253,0.26301 1.08907,0.6401 1.41667,1.16145 0.33333,0.50521 0.5224,1.08385 0.5448,1.72396 l -1.39214,0.10417 c -0.0713,-0.6974 -0.33333,-1.21876 -0.75893,-1.57344 -0.4348,-0.35313 -1.06187,-0.52552 -1.91093,-0.52552 -0.8744,0 -1.51294,0.16146 -1.92654,0.47864 -0.40106,0.31875 -0.602,0.70938 -0.602,1.15626 0,0.40416 0.1448,0.73489 0.42547,0.98281 0.28693,0.24635 1.0036,0.50521 2.1984,0.77864 1.1776,0.27032 1.98227,0.50521 2.43027,0.6974 0.62493,0.30781 1.09586,0.68489 1.4036,1.13855 0.31093,0.4479 0.4636,0.96249 0.4636,1.55729 0,0.57447 -0.1672,1.12916 -0.49587,1.64009 -0.3432,0.50522 -0.82653,0.90678 -1.4536,1.20782 -0.62347,0.28958 -1.33133,0.43073 -2.09947,0.43073 -1.00573,0 -1.83333,-0.14115 -2.4928,-0.4349 -0.6844,-0.29687 -1.2072,-0.71979 -1.58386,-1.31302 -0.37654,-0.56301 -0.58854,-1.22968 -0.61187,-1.96823"
         style="fill:#231f20;fill-opacity:1;fill-rule:nonzero;stroke:none;stroke-width:0.133333"
         id="path50" />
    </symbol>
    <symbol
       id="symbol1178">
      <path
         d="m 94.518798,319.66791 v -9.68542 h -3.612 v -1.29843 h 8.6916 v 1.29843 h -3.640534 v 9.68542 h -1.439066"
         style="fill:#231f20;fill-opacity:1;fill-rule:nonzero;stroke:none;stroke-width:0.133333"
         id="path48" />
    </symbol>
    <symbol
       id="symbol1198">
      <path
         d="m 164.668,319.66791 v -4.65051 l -4.24134,-6.33334 h 1.76134 l 2.172,3.30416 c 0.38533,0.625 0.75733,1.25574 1.10533,1.86511 0.33333,-0.56251 0.73467,-1.21355 1.21067,-1.93751 l 2.11866,-3.23176 h 1.69067 l -4.37867,6.33334 v 4.65051 H 164.668"
         style="fill:#231f20;fill-opacity:1;fill-rule:nonzero;stroke:none;stroke-width:0.133333"
         id="path60" />
    </symbol>
  </defs>
  <path
     d="m 62.870265,133.78933 9.9912,33.82 c 11.0088,37.2852 135.238525,38.03987 159.090525,-44.50533 l -20.004,-59.507997 c -0.77866,2.92 -1.79333,5.821333 -2.996,8.68 C 191.02133,125.91467 97.401598,166.748 62.870265,133.78933"
     style="fill:url(#linearGradient18);fill-opacity:1;fill-rule:evenodd;stroke:none;stroke-width:0.133333"
     id="path20" />
  <path
     d="M 206.77733,52.86267 195.892,2.3680046 C 198.512,0.42933799 135.59466,12.240004 83.066131,56.301337 64.857332,85.221336 51.630665,120.12933 99.151598,131.19333 129.51093,138.264 172.31733,114.81334 194.42666,80.081336 c -4.25333,2.917333 -8.33733,5.681333 -10.65333,8.796 C 143.75333,142.68267 57.040665,128.156 118.61093,73.834669 138.41333,56.35867 181.152,46.25067 206.77733,52.86267"
     style="fill:#565353;fill-opacity:1;fill-rule:evenodd;stroke:none;stroke-width:0.133333"
     id="path22" />
  <path
     d="M 203.16799,49.51067 192.07333,-0.002662 C 132.03906,11.501338 62.558798,58.13867 61.948932,91.714669 61.483865,116.284 75.101065,130.04667 95.492664,134.61733 131.6412,142.74267 195.92,106.512 207.01199,61.221336 L 197.18,60.52667 c -23.992,85.53066 -151.954001,73.23866 -82.02787,10.62 19.67187,-17.625333 62.33987,-28.057333 88.01586,-21.636"
     style="fill:#231f20;fill-opacity:1;fill-rule:evenodd;stroke:none;stroke-width:0.133333"
     id="path24" />
  <path
     d="m 77.220265,230.18933 h -8.6828 v 0.028 l -23.496799,0.0439 c -21.541733,-0.0439 -32.287026,8.52133 -32.287026,25.71613 0,17.1932 10.745293,25.77867 32.216626,25.77867 h 45.142798 v 12.90933 l -45.072398,0.0573 C 14.998933,294.75853 -5.2083332e-4,281.908 -5.2083332e-4,256.09453 -5.2083332e-4,230.3184 14.902133,217.38667 44.734932,217.3064 h 45.378132 v 9.64533 3.2376 z m 54.366135,31.6452 h 31.54426 L 150.636,236.76693 c -1.25334,-2.4428 -2.304,-3.6724 -3.16667,-3.6724 -0.872,0 -1.92267,1.2296 -3.164,3.6724 z m 37.94293,12.85213 h -44.46 l -3.58907,7.06934 -5.84853,12.90933 h -0.58907 -12.75 l 32.21,-64.34693 c 2.23467,-4.3796 4.05467,-7.3692 5.42267,-8.95987 2.00667,-2.27346 4.524,-3.58906 7.47467,-3.93853 3.012,0.34947 5.512,1.6412 7.488,3.876 1.324,1.50267 3.14133,4.5 5.408,9.0224 l 32.23866,64.34693 H 180.04 l -7.53334,-14.02813 z m 47.85333,-25.01613 h 64.42667 v -0.024 h 12.89466 v 19.1 l 0.12,6.57507 c 0,12.8848 -7.53466,19.34373 -22.55733,19.34373 h -22.576 -45.112 L 204.43599,281.908 h 60.084 8.76534 c 5.692,0 8.524,-3.2896 8.524,-9.81094 v -9.6744 h -64.476 v 0 h -12.75467 v -19.07973 l -0.14267,-6.576 c 0,-12.88546 7.512,-19.34693 22.55734,-19.34693 h 22.55466 45.156 l 0.12,12.76933 h -60.08533 -8.764 c -5.68667,0 -8.54533,3.24947 -8.572,9.73067 l -0.02,9.75053"
     style="fill:#231f20;fill-opacity:1;fill-rule:evenodd;stroke:none;stroke-width:0.133333"
     id="path26" />
  <path
     d="m 55.737465,313.5226 h 3.119867 c 0.659867,0 1.180133,-0.0453 1.5588,-0.18542 0.375066,-0.1453 0.663066,-0.37969 0.8516,-0.66666 0.185866,-0.3026 0.2916,-0.63855 0.2916,-0.98386 0,-0.52136 -0.1776,-0.94792 -0.5676,-1.27604 -0.373467,-0.33333 -0.976667,-0.5 -1.7792,-0.5 h -3.475067 z m -1.452,6.14531 v -10.98385 h 4.868667 c 0.976533,0 1.710933,0.12239 2.2276,0.30416 0.500533,0.19323 0.898533,0.54636 1.216666,1.04375 0.298934,0.49324 0.450534,1.05052 0.450534,1.65469 0,0.77344 -0.247867,1.4375 -0.742667,1.95312 -0.5104,0.54688 -1.302133,0.87762 -2.336933,1.02814 0.373333,0.1776 0.673333,0.37186 0.8728,0.55208 0.4256,0.38281 0.826666,0.87448 1.2016,1.45885 l 1.913066,2.98906 h -1.8276 l -1.4532,-2.29739 c -0.4244,-0.64792 -0.779599,-1.15312 -1.050533,-1.50522 -0.273333,-0.3427 -0.509866,-0.59582 -0.721333,-0.73333 -0.239067,-0.14375 -0.450533,-0.23489 -0.6624,-0.28645 -0.188667,-0.0297 -0.448533,-0.0573 -0.826667,-0.0573 h -1.6776 v 4.87969 h -1.452"
     style="fill:#231f20;fill-opacity:1;fill-rule:nonzero;stroke:none;stroke-width:0.133333"
     id="path40" />
  <path
     d="m 83.595865,308.69708 h 1.452533 v 6.3427 c 0,1.08178 -0.127067,1.95626 -0.373333,2.61771 -0.242267,0.64636 -0.6896,1.17969 -1.349067,1.58647 -0.661467,0.4026 -1.511467,0.60937 -2.5724,0.60937 -1.0176,0 -1.855733,-0.18542 -2.504667,-0.54427 -0.662533,-0.34375 -1.1364,-0.8599 -1.4072,-1.53698 -0.2704,-0.65626 -0.413066,-1.5776 -0.413066,-2.7323 v -6.3427 h 1.440666 v 6.32032 c 0,0.96249 0.09373,1.66145 0.2708,2.125 0.177067,0.44426 0.4864,0.78541 0.913467,1.03072 0.4224,0.2401 0.9652,0.35469 1.578133,0.35469 1.061467,0 1.8204,-0.23177 2.291734,-0.71719 0.447333,-0.48646 0.6724,-1.40521 0.6724,-2.79322 v -6.32032"
     style="fill:#231f20;fill-opacity:1;fill-rule:nonzero;stroke:none;stroke-width:0.133333"
     id="path44" />
  <path
     d="m 116.67346,315.15489 h 3.7312 l -1.1448,-3.02031 c -0.35253,-0.94792 -0.60053,-1.69322 -0.77866,-2.2974 -0.15414,0.71355 -0.34427,1.40678 -0.59107,2.10156 z m -3.15373,4.51302 4.2152,-10.97083 h 1.56093 l 4.48587,10.97083 h -1.65467 l -1.27346,-3.32813 h -4.58174 l -1.21346,3.32813 h -1.53867"
     style="fill:#231f20;fill-opacity:1;fill-rule:nonzero;stroke:none;stroke-width:0.133333"
     id="path52" />
  <path
     d="m 124.94173,319.66791 v -10.98385 h 1.47493 l 5.77294,8.61719 v -8.61719 h 1.39573 v 10.98385 h -1.49893 l -5.7656,-8.62551 v 8.62551 h -1.37907"
     style="fill:#231f20;fill-opacity:1;fill-rule:nonzero;stroke:none;stroke-width:0.133333"
     id="path54" />
  <path
     d="m 137.47066,318.36792 h 2.33867 c 0.71733,0 1.29867,-0.0719 1.7,-0.2 0.41333,-0.13334 0.74,-0.3224 0.992,-0.57084 0.34,-0.34115 0.59867,-0.81459 0.80133,-1.39323 0.2,-0.57708 0.29467,-1.28541 0.29467,-2.11197 0,-1.14792 -0.19867,-2.03074 -0.56533,-2.64532 -0.39067,-0.61198 -0.85067,-1.01615 -1.384,-1.22916 -0.38667,-0.16147 -1.01334,-0.23491 -1.87467,-0.23491 h -2.30267 z m -1.45333,1.29999 v -10.98385 h 3.78133 c 0.84934,0 1.49734,0.0693 1.94534,0.16406 0.63733,0.1401 1.17066,0.40104 1.608,0.78125 0.57733,0.49479 1.02666,1.10937 1.29733,1.88541 0.29333,0.7573 0.43733,1.62918 0.43733,2.60104 0,0.82814 -0.092,1.57866 -0.29466,2.22396 -0.2,0.63074 -0.44,1.17762 -0.744,1.58803 -0.30534,0.41197 -0.63867,0.75885 -1.00534,0.99062 -0.36533,0.24948 -0.79333,0.44011 -1.31066,0.55469 -0.508,0.11615 -1.084,0.19479 -1.76134,0.19479 h -3.95333"
     style="fill:#231f20;fill-opacity:1;fill-rule:nonzero;stroke:none;stroke-width:0.133333"
     id="path56" />
  <path
     d="m 201.54799,319.66791 v -10.98385 h 2.18267 l 2.59467,7.77083 c 0.24,0.72917 0.42666,1.27032 0.52133,1.63021 0.13067,-0.40104 0.32133,-0.99584 0.592,-1.77448 l 2.62,-7.62656 h 1.96133 v 10.98385 h -1.404 v -9.18802 l -3.17733,9.18802 h -1.324 l -3.16533,-9.34635 v 9.34635 h -1.40134"
     style="fill:#231f20;fill-opacity:1;fill-rule:nonzero;stroke:none;stroke-width:0.133333"
     id="path68" />
  <path
     d="m 240.12533,314.35333 c 0,1.30937 0.35333,2.36145 1.06133,3.11459 0.70933,0.75208 1.608,1.13228 2.67067,1.13228 1.108,0 1.984,-0.3802 2.68933,-1.1401 0.71067,-0.76562 1.076,-1.87084 1.076,-3.27344 0,-0.89584 -0.15467,-1.67708 -0.45867,-2.34114 -0.31066,-0.65886 -0.74266,-1.18022 -1.32266,-1.5547 -0.59467,-0.35468 -1.24134,-0.54686 -1.96,-0.54686 -1.016,0 -1.912,0.35885 -2.64667,1.06249 -0.74,0.70833 -1.10933,1.89063 -1.10933,3.54688 m -1.50934,-0.024 c 0,-1.83333 0.49334,-3.26249 1.47734,-4.27344 0.976,-1.04115 2.228,-1.55989 3.788,-1.55989 1.00666,0 1.92266,0.2375 2.73866,0.73177 0.804,0.47083 1.428,1.15104 1.85734,2.01615 0.42533,0.86406 0.636,1.85052 0.636,2.9427 0,1.10678 -0.22667,2.11198 -0.672,2.9974 -0.45334,0.87448 -1.09334,1.53594 -1.91867,1.98385 -0.80933,0.45052 -1.71067,0.68542 -2.652,0.68542 -1.028,0 -1.95067,-0.26406 -2.78,-0.75625 -0.79867,-0.49688 -1.41333,-1.18126 -1.83867,-2.04115 -0.42533,-0.86145 -0.636,-1.78645 -0.636,-2.72656"
     style="fill:#231f20;fill-opacity:1;fill-rule:nonzero;stroke:none;stroke-width:0.133333"
     id="path74" />
  <use
     xlink:href="#symbol1128"
     id="use324324" />
  <use
     xlink:href="#symbol1136"
     id="use1139" />
  <use
     xlink:href="#symbol1147"
     id="use1150" />
  <use
     xlink:href="#symbol1161"
     id="use1164" />
  <use
     xlink:href="#symbol1178"
     id="use1181" />
  <use
     xlink:href="#symbol1198"
     id="use1201" />
  <use
     xlink:href="#symbol1128"
     id="use1239"
     transform="translate(262.30451)" />
  <use
     xlink:href="#symbol1147"
     id="use1536"
     transform="translate(26.3828)" />
  <use
     xlink:href="#symbol1147"
     id="use1559"
     transform="translate(212.044)" />
  <use
     xlink:href="#symbol1128"
     id="use1262"
     transform="translate(87.707852,-0.01302)" />
  <use
     xlink:href="#symbol1128"
     id="use1285"
     transform="translate(50.259853)" />
  <use
     xlink:href="#symbol1136"
     id="use1390"
     transform="translate(10.22756)" />
  <use
     xlink:href="#symbol1161"
     id="use1586"
     transform="translate(50.243601)" />
  <use
     xlink:href="#symbol1161"
     id="use1609"
     transform="translate(70.711601)" />
  <use
     xlink:href="#symbol1161"
     id="use1632"
     transform="translate(113.2676)" />
  <use
     xlink:href="#symbol1161"
     id="use1655"
     transform="translate(127.75026)" />
  <use
     xlink:href="#symbol1178"
     id="use1678"
     transform="translate(90.289203)" />
  <use
     xlink:href="#symbol1178"
     id="use1701"
     transform="translate(184.81186)" />
  <use
     xlink:href="#symbol1198"
     id="use1726"
     transform="translate(124.33199)" />
  <use
     xlink:href="#symbol1136"
     id="use1413"
     transform="translate(20.455693)" />
  <use
     xlink:href="#symbol1136"
     id="use1454"
     transform="translate(187.36303)" />
  <use
     xlink:href="#symbol1136"
     id="use1495"
     transform="translate(262.30569)" />
</svg>
