<?xml version="1.0" encoding="UTF-8" standalone="no"?>
<!-- Created with Inkscape (http://www.inkscape.org/) -->

<svg
   version="1.1"
   id="svg2"
   width="498.944"
   height="206.94818"
   viewBox="0 0 498.944 206.94818"
   xmlns:xlink="http://www.w3.org/1999/xlink"
   xmlns="http://www.w3.org/2000/svg"
   xmlns:svg="http://www.w3.org/2000/svg">
  <defs
     id="defs6">
    <symbol
       id="symbol713">
      <path
         d="m 231.45599,27.27454 v 5.224933 c 2.95334,0 5.71734,-0.076 9.61734,-0.227067 l 0.228,0.227067 -0.38,5.6036 -0.34,0.228133 c -5.188,0 -6.05867,-0.03853 -7.19467,-0.03853 -4.164,0 -6.324,0.07667 -9.92133,0.1516 l -0.18934,-0.264 c 0.11467,-4.355333 0.152,-6.702667 0.152,-11.8532 0,-9.087066 -0.076,-10.6404 -0.26533,-14.503066 l 0.228,-0.226667 h 17.03867 l 0.18933,0.152 -0.264,5.225333 -0.228,0.189334 h -8.74667 v 4.8084 l 8.292,-0.1516 0.228,0.266133 -0.30266,4.959466 -0.26534,0.228134 h -7.876"
         style="fill:#231f20;fill-opacity:1;fill-rule:nonzero;stroke:none;stroke-width:0.133333"
         id="path18" />
    </symbol>
    <symbol
       id="symbol721">
      <path
         d="m 218.76266,60.021872 c -1.684,-0.850533 -3.37467,-1.275466 -5.07333,-1.275466 -2.048,0 -3.92267,0.504133 -5.62267,1.509866 -1.7,1.0068 -3.036,2.376 -4.00667,4.110934 -0.972,1.735466 -1.45733,3.661466 -1.45733,5.777066 0,2.1172 0.48533,4.052133 1.45733,5.803067 0.97067,1.7532 2.30667,3.140666 4.00667,4.163066 1.7,1.025067 3.57467,1.536533 5.62267,1.536533 1.62933,0 3.28666,-0.390666 4.96933,-1.172 1.68267,-0.7796 3.18267,-1.829066 4.50267,-3.148399 l 4.84,5.256266 c -1.944,2.0136 -4.224,3.6084 -6.844,4.789067 -2.62,1.178666 -5.24934,1.769733 -7.88534,1.769733 -3.57466,0 -6.81733,-0.825467 -9.732,-2.475467 -2.916,-1.645866 -5.20399,-3.9088 -6.87066,-6.789066 -1.66533,-2.880133 -2.49733,-6.0896 -2.49733,-9.628667 0,-3.5036 0.84933,-6.679599 2.54933,-9.524399 1.7,-2.8448 4.03333,-5.0824 7,-6.713067 2.96666,-1.6312 6.25466,-2.446933 9.86266,-2.446933 2.63734,0 5.24,0.5464 7.808,1.6396 2.56534,1.093733 4.752,2.576666 6.556,4.450533 l -4.78666,5.8808 c -1.25067,-1.4912 -2.716,-2.663067 -4.39867,-3.513067"
         style="fill:#231f20;fill-opacity:1;fill-rule:nonzero;stroke:none;stroke-width:0.133333"
         id="path24" />
    </symbol>
    <symbol
       id="symbol732">
      <path
         d="m 244.18666,60.282272 c -1.73733,1.023467 -3.10667,2.419334 -4.112,4.188534 -1.00667,1.769866 -1.50933,3.714133 -1.50933,5.829733 0,2.151066 0.51066,4.112 1.536,5.8812 1.02133,1.769866 2.39333,3.175066 4.11066,4.215199 1.71734,1.04 3.58134,1.5624 5.596,1.5624 2.00934,0 3.85867,-0.512 5.54134,-1.535333 1.68266,-1.022933 3.01733,-2.428133 4.008,-4.216133 0.98933,-1.786533 1.484,-3.756267 1.484,-5.907333 0,-2.1156 -0.49467,-4.059867 -1.484,-5.829733 -0.99067,-1.7692 -2.32534,-3.165067 -4.008,-4.188534 -1.68267,-1.024 -3.532,-1.535866 -5.54134,-1.535866 -2.01466,0 -3.888,0.511866 -5.62133,1.535866 z m 15.456,-6.271333 c 2.984,1.630667 5.33467,3.876 7.05333,6.740133 1.71734,2.862 2.576,6.045333 2.576,9.549467 0,3.5052 -0.85866,6.6964 -2.576,9.576533 -1.71866,2.880266 -4.06933,5.1432 -7.05333,6.789066 -2.984,1.65 -6.29733,2.475467 -9.94,2.475467 -3.64267,0 -6.956,-0.825467 -9.94,-2.475467 -2.98533,-1.645866 -5.33467,-3.901066 -7.052,-6.764 -1.71867,-2.861999 -2.576,-6.062533 -2.576,-9.601599 0,-3.504134 0.85733,-6.687467 2.576,-9.549467 1.71733,-2.864133 4.05867,-5.109466 7.02533,-6.740133 2.96667,-1.6312 6.288,-2.446933 9.96667,-2.446933 3.64267,0 6.956,0.815733 9.94,2.446933"
         style="fill:#231f20;fill-opacity:1;fill-rule:nonzero;stroke:none;stroke-width:0.133333"
         id="path26" />
    </symbol>
    <symbol
       id="symbol746">
      <path
         d="m 396.57332,52.136939 h 30.44667 v 6.973467 h -11.13867 v 29.458399 h -8.224 V 59.110406 h -11.084 v -6.973467"
         style="fill:#231f20;fill-opacity:1;fill-rule:nonzero;stroke:none;stroke-width:0.133333"
         id="path34" />
    </symbol>
    <symbol
       id="symbol763">
      <path
         d="m 431.96399,52.136939 h 27.74 v 6.817733 h -19.516 v 7.910933 h 17.54 v 6.817734 h -17.54 v 8.067733 h 20.08933 v 6.817733 H 431.96399 V 52.136939"
         style="fill:#231f20;fill-opacity:1;fill-rule:nonzero;stroke:none;stroke-width:0.133333"
         id="path36" />
    </symbol>
    <symbol
       id="symbol2189">
      <path
         d="m 198.3618,195.12618 a 2.9075316,2.9075316 0 0 0 -0.0637,0.67452 c 0,1.06998 0.58153,1.60497 1.74452,1.60497 a 3.7565308,3.7565308 0 0 0 1.94805,-0.5815 l 0.70943,3.42508 a 7.7456641,7.7456641 0 0 1 -4.13452,0.98855 5.5592003,5.5592003 0 0 1 -3.76816,-1.2328 4.2740715,4.2740715 0 0 1 -1.41888,-3.396 7.9666367,7.9666367 0 0 1 0.15703,-1.44794 l 1.32582,-6.69314 h -2.55863 l 0.73853,-3.70419 h 2.55861 l 0.80247,-4.04148 h 4.80907 l -0.80248,4.04148 h 4.13451 l -0.73852,3.70419 h -4.13449 z"
         fill="#12100b"
         id="path65"
         style="stroke-width:0.581506" />
    </symbol>
    <symbol
       id="symbol2390">
      <path
         d="m 265.5316,193.98062 h -12.71171 q 0.2442,3.39017 4.28567,3.39597 a 7.3676852,7.3676852 0 0 0 2.42489,-0.40124 6.2163027,6.2163027 0 0 0 2.02363,-1.16302 l 2.0004,3.17503 a 9.5308887,9.5308887 0 0 1 -3.17503,1.66895 12.746618,12.746618 0 0 1 -3.76235,0.5524 10.467114,10.467114 0 0 1 -4.49505,-0.90714 6.7629185,6.7629185 0 0 1 -2.95985,-2.61096 7.3444248,7.3444248 0 0 1 -1.03509,-3.91936 9.885608,9.885608 0 0 1 1.25025,-4.94861 8.9668275,8.9668275 0 0 1 3.48904,-3.45415 10.10658,10.10658 0 0 1 5.05909,-1.25023 9.1354642,9.1354642 0 0 1 4.18104,0.89551 6.4663504,6.4663504 0 0 1 2.75052,2.55863 7.5595822,7.5595822 0 0 1 0.97111,3.85538 12.915255,12.915255 0 0 1 -0.29656,2.55284 z m -10.70553,-5.3208 a 4.9020982,4.9020982 0 0 0 -1.66892,2.51791 h 8.23993 a 3.2448052,3.2448052 0 0 0 -1.0002,-2.51791 3.8844624,3.8844624 0 0 0 -2.704,-0.91296 4.5473794,4.5473794 0 0 0 -2.86681,0.91296 z"
         fill="#12100b"
         id="path71"
         style="stroke-width:0.581506" />
    </symbol>
  </defs>
  <path
     d="m 149.59333,152.66203 c -0.10133,0 -0.20533,-0.009 -0.30933,-0.0333 -0.79867,-0.17084 -1.308,-0.95625 -1.13734,-1.75312 l 31.892,-149.704215 c 0.16934,-0.79866666 0.95067,-1.31466664 1.75467,-1.13599998 0.79867,0.16933333 1.308,0.95466664 1.13867,1.75333328 L 151.03866,151.49016 c -0.148,0.69479 -0.76266,1.17187 -1.44533,1.17187"
     style="fill:#a7a5a6;fill-opacity:1;fill-rule:nonzero;stroke:none;stroke-width:0.133333"
     id="path14" />
  <path
     d="m 217.52666,38.326564 c -3.59733,-0.03853 -4.50667,-0.03853 -8.25467,0.113067 l -0.152,-0.1896 c 0,-3.407333 0.0387,-6.777067 0.0773,-10.147333 0.036,-2.157867 0.0747,-4.316667 0.0747,-6.476133 0,-3.3312 -0.0747,-5.792534 -0.228,-9.845867 l 0.18934,-0.188 c 3.712,0.03733 4.50666,0.03733 8.21733,-0.113333 l 0.152,0.189333 c -0.11333,3.786667 -0.18933,6.058667 -0.18933,10.4136 0,5.338533 0.11333,10.753733 0.26533,16.054666 l -0.152,0.1896"
     style="fill:#231f20;fill-opacity:1;fill-rule:nonzero;stroke:none;stroke-width:0.133333"
     id="path16" />
  <path
     d="m 275.20399,52.132297 h 9.16 l 11.34667,22.379733 11.24133,-22.379733 h 9.10934 v 36.431866 h -7.39067 V 63.946964 L 298.31333,84.86883 h -5.308 L 282.59466,63.946964 v 24.617199 h -7.39067 V 52.132297"
     style="fill:#231f20;fill-opacity:1;fill-rule:nonzero;stroke:none;stroke-width:0.133333"
     id="path28" />
  <path
     d="m 345.02266,69.696963 c 1.23066,-1.057333 1.848,-2.610933 1.848,-4.657866 0,-2.011467 -0.61734,-3.529733 -1.848,-4.554133 -1.232,-1.0224 -3.01067,-1.534934 -5.33467,-1.534934 h -6.81733 v 12.333867 h 6.81733 c 2.324,0 4.10267,-0.527067 5.33467,-1.586934 z m 5.856,-14.259999 c 2.53333,2.204266 3.79866,5.3172 3.79866,9.342266 0,4.2328 -1.276,7.520267 -3.82533,9.863067 -2.55067,2.341066 -6.13467,3.512933 -10.748,3.512933 h -7.23333 v 10.408933 h -8.22533 V 52.132297 h 15.45866 c 4.64933,0 8.24133,1.102667 10.77467,3.304667"
     style="fill:#231f20;fill-opacity:1;fill-rule:nonzero;stroke:none;stroke-width:0.133333"
     id="path30" />
  <path
     d="m 370.26399,79.690696 c 1.47733,1.5088 3.444,2.264 5.908,2.264 2.39467,0 4.30133,-0.747333 5.724,-2.2396 1.42267,-1.490533 2.13467,-3.554666 2.13467,-6.192666 V 52.132297 h 8.224 V 73.52243 c 0,3.192667 -0.65067,5.959333 -1.95067,8.301066 -1.30133,2.342134 -3.168,4.145867 -5.59733,5.412534 -2.42667,1.268133 -5.29067,1.900933 -8.58534,1.900933 -3.29733,0 -6.17866,-0.6328 -8.64133,-1.900933 -2.46267,-1.266667 -4.35467,-3.0704 -5.67067,-5.412534 -1.32,-2.341733 -1.97866,-5.108399 -1.97866,-8.301066 V 52.132297 h 8.22266 V 73.52243 c 0,2.602667 0.73734,4.657867 2.21067,6.168266"
     style="fill:#231f20;fill-opacity:1;fill-rule:nonzero;stroke:none;stroke-width:0.133333"
     id="path32" />
  <path
     d="m 475.47332,71.283897 h 7.59733 c 2.29067,0 4.04934,-0.527067 5.284,-1.586934 1.232,-1.057333 1.84667,-2.610933 1.84667,-4.657866 0,-2.011467 -0.61467,-3.529733 -1.84667,-4.554133 -1.23466,-1.0224 -2.99333,-1.534934 -5.284,-1.534934 h -7.59733 z m 14.156,17.280266 -5.77733,-10.408933 h -8.37867 v 10.408933 h -8.22267 V 52.132297 h 15.82 c 4.75467,0 8.432,1.102667 11.03334,3.304667 2.604,2.204266 3.90533,5.3172 3.90533,9.342266 0,2.809333 -0.584,5.213067 -1.74533,7.207733 -1.16134,1.9948 -2.85467,3.513067 -5.072,4.553734 l 7.752,12.023466 h -9.31467"
     style="fill:#231f20;fill-opacity:1;fill-rule:nonzero;stroke:none;stroke-width:0.133333"
     id="path38" />
  <path
     d="m 202.10799,111.5927 c -2.1,-0.676 -3.89599,-1.01454 -5.38666,-1.01454 -1.42267,0 -2.55067,0.2604 -3.384,0.78027 -0.832,0.5208 -1.248,1.2848 -1.248,2.29 0,1.28387 0.59867,2.26307 1.79467,2.94013 1.19866,0.67707 3.04533,1.3808 5.544,2.10734 2.49866,0.73013 4.55333,1.45773 6.16666,2.18853 1.61333,0.72813 2.99333,1.82027 4.13733,3.27707 1.14534,1.4584 1.71734,3.3828 1.71734,5.7792 0,2.324 -0.616,4.32653 -1.84667,6.00933 -1.232,1.6828 -2.924,2.95733 -5.07467,3.82555 -2.15066,0.8677 -4.59733,1.30104 -7.33866,1.30104 -2.94933,0 -5.84667,-0.52136 -8.69067,-1.56147 -2.84533,-1.04112 -5.30933,-2.46352 -7.39066,-4.26925 l 3.27866,-6.71307 c 1.83867,1.6652 3.95467,3.00107 6.34934,4.00893 2.39466,1.00667 4.58,1.50827 6.55866,1.50827 1.69867,0 3.02533,-0.312 3.98,-0.93533 0.95467,-0.62614 1.43067,-1.5272 1.43067,-2.7084 0,-0.93494 -0.32,-1.7068 -0.96134,-2.31454 -0.64266,-0.6068 -1.45866,-1.10213 -2.44666,-1.48333 -0.988,-0.38027 -2.35067,-0.8152 -4.08533,-1.30053 -2.49734,-0.69534 -4.53734,-1.38854 -6.116,-2.08334 -1.57867,-0.6932 -2.94,-1.7516 -4.08534,-3.17506 -1.14533,-1.42027 -1.71733,-3.31254 -1.71733,-5.67187 0,-2.18693 0.59067,-4.10253 1.76933,-5.75253 1.18,-1.64694 2.828,-2.91254 4.94534,-3.79694 2.116,-0.88546 4.58,-1.3292 7.39066,-1.3292 2.49734,0 4.96133,0.36574 7.38933,1.09374 2.42934,0.7292 4.58,1.69906 6.45467,2.91573 l -3.176,6.8172 c -1.87333,-1.14693 -3.86,-2.0568 -5.95867,-2.73293"
     style="fill:#231f20;fill-opacity:1;fill-rule:nonzero;stroke:none;stroke-width:0.133333"
     id="path40" />
  <path
     d="m 295.91866,104.17603 h 8.22267 v 36.43288 h -8.22267 v -36.43288"
     style="fill:#231f20;fill-opacity:1;fill-rule:nonzero;stroke:none;stroke-width:0.133333"
     id="path46" />
  <path
     d="m 410.62399,104.17603 -13.272,24.66933 v 11.76355 h -8.22267 V 129.0547 l -13.48,-24.87867 h 8.27467 l 9.31867,16.3428 9.10666,-16.3428 h 8.27467"
     style="fill:#231f20;fill-opacity:1;fill-rule:nonzero;stroke:none;stroke-width:0.133333"
     id="path52" />
  <path
     d="m 82.327065,105.4131 c 0.0104,8.56146 0.614666,8.85933 6.588533,9.2536 l 6.162533,0.36253 0.267733,0.1416 c 1.325467,0.71613 1.742134,2.40627 1.5672,3.76667 -0.188533,1.46253 -1.024,2.54426 -2.181866,2.82813 l -0.189467,0.0433 -0.195333,-0.008 c -4.842267,-0.21614 -13.2756,-0.34374 -22.557866,-0.34374 -9.785467,0 -18.216133,0.12494 -23.130667,0.34374 l -0.195333,0.008 -0.1896,-0.0433 c -1.157867,-0.28387 -1.992666,-1.3656 -2.181733,-2.82813 -0.175067,-1.3604 0.2416,-3.05054 1.5672,-3.76667 l 0.2676,-0.1416 6.1724,-0.36253 c 5.969333,-0.39427 6.568799,-0.69214 6.579733,-9.27187 -23.522933,-2.6448 -38.177599,-14.035467 -38.177599,-30.5104 0,-16.5932 12.639599,-27.221333 35.140132,-30.211466 0.08067,2.143733 0.1448,5.022933 0.19,8.332266 -1.373333,0.351067 -2.685866,0.740667 -3.859333,1.2 l -0.583867,0.216667 c -4.690533,1.757333 -7.884799,5.039067 -9.291599,9.5172 l -0.05267,0.149467 c -0.816667,1.959866 -1.2656,5.661466 -1.2656,10.426133 l 5.33e-4,0.197866 -5.33e-4,0.1964 c 0,4.764533 0.448933,8.466133 1.2656,10.4244 l 0.05987,0.175067 c 1.086533,3.454133 3.261466,6.191066 6.340133,8.060933 4.427066,2.946266 12.884933,4.4672 21.277066,4.4672 9.1824,0 18.440133,-1.821467 22.411999,-5.3396 2.414667,-1.8204 4.145867,-4.2464 5.078667,-7.21 l 0.05267,-0.1536 c 0.816659,-1.958267 1.265599,-5.659867 1.265599,-10.4244 l -0.001,-0.1808 0.001,-0.213466 c 0,-4.764667 -0.44894,-8.466267 -1.265599,-10.426133 l -0.05107,-0.144267 c -1.408933,-4.483333 -4.6032,-7.765067 -9.238,-9.499467 l -0.604267,-0.225466 c -2.056266,-0.808934 -4.440533,-1.4516 -7.044799,-1.915733 v 41.799598 c -3.0192,0.558267 -6.585867,0.9104 -10.6052,0.9104 -4.216133,0 -7.9312,-0.388533 -11.0416,-0.993733 v -9.679733 c 0.191067,-9.019866 0.385333,-23.316133 0.167733,-33.432799 l 0.002,0.0016 c -5.33e-4,-0.242267 -0.171333,-7.0896 -0.1724,-7.316267 -0.04107,-6.621333 -0.6708,-7.322799 -5.644799,-7.868133 l -6.9968,-0.806266 c -1.0604,-0.4756 -1.776,-1.6844 -1.866133,-3.1532 -0.09013,-1.4604 0.4572,-2.7348 1.429599,-3.3208 l 0.2552,-0.156267 0.295867,-0.03387 c 5.119867,-0.604133 11.579733,-1.7452 18.188533,-3.212399 3.4808,-0.8308 6.714133,-1.883334 9.076133,-2.652667 2.352533,-0.767733 3.3328,-1.0776 3.961867,-1.0776 1.306266,0 2.838533,0.692667 3.317733,2.239067 l 0.0844,0.271333 -0.03067,0.285467 c -0.2636,2.442133 -0.421466,7.529199 -0.421466,13.597866 v 6.5756 c 24.514138,2.3796 38.330798,13.233866 38.330798,30.603599 0,16.512 -14.71613,27.918273 -38.329198,30.528673 z M 71.419732,8.6860315 C 31.975999,8.6860315 0,37.933898 0,74.01043 0,110.08856 31.975999,139.33391 71.419732,139.33391 110.864,139.33391 142.84,110.08856 142.84,74.01043 142.84,37.933898 110.864,8.6860315 71.419732,8.6860315"
     style="fill:#f89a0f;fill-opacity:1;fill-rule:nonzero;stroke:none;stroke-width:0.133333"
     id="path54" />
  <path
     d="m 121.28853,135.30216 h 1.80933 l 3.0068,6.18903 2.986,-6.18903 h 1.83067 v 9.1531 h -1.41667 v -6.9735 l -2.89893,6.01516 h -1.00213 l -2.8984,-6.01516 v 6.9735 h -1.41667 z m -8.412,0 h 7.06093 v 1.352 h -2.76773 v 7.8011 h -1.54733 v -7.8011 h -2.74587 v -1.352"
     style="fill:#f89a0f;fill-opacity:1;fill-rule:nonzero;stroke:none;stroke-width:0.133333"
     id="path56" />
  <use
     xlink:href="#symbol713"
     id="use716"
     transform="translate(0,-0.00464213)" />
  <use
     xlink:href="#symbol721"
     id="use724"
     transform="translate(0,-0.00464213)" />
  <use
     xlink:href="#symbol732"
     id="use735"
     transform="translate(0,-0.00464213)" />
  <use
     xlink:href="#symbol746"
     id="use749"
     transform="translate(0,-0.00464213)" />
  <use
     xlink:href="#symbol763"
     id="use766"
     transform="translate(0,-0.00464213)" />
  <use
     xlink:href="#symbol713"
     id="use884"
     transform="translate(22.06667,-0.00464213)" />
  <use
     xlink:href="#symbol713"
     id="use922"
     transform="translate(44.13467,-0.00464213)" />
  <use
     xlink:href="#symbol721"
     id="use1007"
     transform="translate(62.504,52.03962)" />
  <use
     xlink:href="#symbol732"
     id="use1060"
     transform="translate(-14.988,52.039222)" />
  <use
     xlink:href="#symbol746"
     id="use1113"
     transform="translate(-52.152,52.039089)" />
  <use
     xlink:href="#symbol763"
     id="use1196"
     transform="translate(-119.236,52.039089)" />
  <path
     d="m 65.138705,199.33626 c -1.571886,-1.4016 -2.426668,-3.43814 -2.326025,-5.54173 0.0087,-0.78124 0.09089,-1.55994 0.244227,-2.32602 l 2.407442,-12.09534 h 5.030031 l -2.407443,12.00227 c -0.11546,0.60006 -0.177742,1.20913 -0.186074,1.82013 -0.08129,1.07731 0.306638,2.13724 1.064151,2.90753 0.874371,0.70175 1.980956,1.04847 3.099435,0.9711 1.348208,0.0688 2.665136,-0.42128 3.640221,-1.35491 0.907149,-0.90713 1.566187,-2.35701 1.97713,-4.34966 l 2.40743,-12.00227 h 4.90791 l -2.413244,12.33372 c -1.314211,6.43922 -4.997081,9.6569 -11.048629,9.65302 -2.713689,0 -4.845877,-0.67262 -6.396562,-2.01784 z"
     fill="#12100b"
     id="path55"
     style="stroke-width:0.581506" />
  <path
     d="m 109.80422,179.39059 -4.3148,21.59715 h -4.10543 l -8.053858,-13.51419 -2.715638,13.51419 h -4.936981 l 4.320591,-21.59715 h 4.134504 l 8.053872,13.5433 2.68075,-13.5433 z"
     fill="#12100b"
     id="path57"
     style="stroke-width:0.581506" />
  <path
     d="m 125.97589,196.35896 h -10.06005 l -2.80865,4.65205 h -5.33824 l 13.95612,-21.59716 h 4.93701 l 5.34986,21.5739 h -4.99515 z m -0.83154,-3.79722 -1.82594,-8.32718 -5.08818,8.32718 z"
     fill="#12100b"
     id="path59"
     style="stroke-width:0.581506" />
  <path
     d="m 162.87829,179.39059 -4.29152,21.59715 h -4.68696 l 2.53536,-12.83963 -8.23991,10.55432 h -2.22719 l -4.44269,-10.67647 -2.59352,12.96178 h -4.68695 l 4.32058,-21.59715 h 4.07056 l 5.4022,13.45025 10.54852,-13.45025 z"
     fill="#12100b"
     id="path61"
     style="stroke-width:0.581506" />
  <path
     d="m 175.0434,200.67957 a 11.9674,11.9674 0 0 1 -3.76816,-1.74453 l 2.03528,-3.8612 a 11.444044,11.444044 0 0 0 3.33783,1.66893 12.502385,12.502385 0 0 0 3.79143,0.5815 6.6756925,6.6756925 0 0 0 3.27387,-0.68035 2.0643475,2.0643475 0 0 0 1.20372,-1.84922 1.5875123,1.5875123 0 0 0 -0.95947,-1.46538 16.107724,16.107724 0 0 0 -3.05293,-1.09905 31.785136,31.785136 0 0 1 -3.42507,-1.16302 6.2337478,6.2337478 0 0 1 -2.32603,-1.71543 4.506674,4.506674 0 0 1 -0.9711,-3.02383 6.350049,6.350049 0 0 1 1.22116,-3.85539 7.6758833,7.6758833 0 0 1 3.45416,-2.55863 13.909631,13.909631 0 0 1 5.19866,-0.89552 17.218401,17.218401 0 0 1 4.13448,0.47682 11.04862,11.04862 0 0 1 3.33205,1.37237 l -1.87825,3.82632 a 8.9959027,8.9959027 0 0 0 -2.71563,-1.25024 12.002291,12.002291 0 0 0 -3.14596,-0.41289 6.5419461,6.5419461 0 0 0 -3.36693,0.73854 2.198094,2.198094 0 0 0 -1.2328,1.91315 1.5468069,1.5468069 0 0 0 0.52338,1.163 3.9716881,3.9716881 0 0 0 1.32583,0.77341 c 0.53497,0.19771 1.28512,0.42449 2.25623,0.69198 a 26.115448,26.115448 0 0 1 3.39018,1.12814 6.175597,6.175597 0 0 1 2.26788,1.66311 4.2915166,4.2915166 0 0 1 0.94203,2.90751 6.3209737,6.3209737 0 0 1 -1.23277,3.87283 7.9259311,7.9259311 0 0 1 -3.48906,2.55863 13.956152,13.956152 0 0 1 -5.23355,0.90716 17.48008,17.48008 0 0 1 -4.89046,-0.66872 z"
     fill="#12100b"
     id="path63"
     style="stroke-width:0.581506" />
  <path
     d="m 225.26808,184.38575 -3.30294,16.60199 h -4.57063 l 0.34306,-1.79103 a 7.1699729,7.1699729 0 0 1 -2.47137,1.52938 8.4841773,8.4841773 0 0 1 -2.90755,0.50589 6.1930424,6.1930424 0 0 1 -4.33222,-1.47703 5.3614882,5.3614882 0 0 1 -1.62241,-4.16938 9.6762651,9.6762651 0 0 1 0.21518,-2.00622 l 1.82012,-9.1936 h 4.81484 l -1.7445,8.88542 a 5.9139193,5.9139193 0 0 0 -0.12214,1.20371 q 0,2.58771 2.77378,2.59353 a 4.3322219,4.3322219 0 0 0 3.00638,-1.06416 5.6406113,5.6406113 0 0 0 1.62241,-3.19249 l 1.69799,-8.42601 z"
     fill="#12100b"
     id="path67"
     style="stroke-width:0.581506" />
  <path
     d="m 247.88287,178.09385 -4.56481,22.89389 h -4.57065 l 0.34309,-1.66892 a 7.6758833,7.6758833 0 0 1 -8.67025,1.01764 6.6524323,6.6524323 0 0 1 -2.61097,-2.57606 7.7979997,7.7979997 0 0 1 -0.9711,-3.96587 10.054244,10.054244 0 0 1 1.22116,-4.94863 8.9784575,8.9784575 0 0 1 3.31457,-3.45416 8.844711,8.844711 0 0 1 4.65205,-1.25022 7.6816985,7.6816985 0 0 1 3.19249,0.61639 5.0183996,5.0183996 0 0 1 2.17482,1.82012 l 1.68637,-8.48417 z m -9.88562,18.46281 a 4.704386,4.704386 0 0 0 1.74454,-1.92477 6.2511929,6.2511929 0 0 0 0.6164,-2.83775 3.5937091,3.5937091 0 0 0 -1.0002,-2.68654 3.8146815,3.8146815 0 0 0 -2.79123,-0.98859 4.6520504,4.6520504 0 0 0 -4.26244,2.6226 6.3267887,6.3267887 0 0 0 -0.62221,2.83194 3.5937091,3.5937091 0 0 0 1.00601,2.68657 3.8146815,3.8146815 0 0 0 2.79123,0.98857 4.6520504,4.6520504 0 0 0 2.52955,-0.69203 z"
     fill="#12100b"
     id="path69"
     style="stroke-width:0.581506" />
  <path
     d="m 284.53523,185.6069 a 5.3149678,5.3149678 0 0 1 1.63984,4.18104 9.7169705,9.7169705 0 0 1 -0.21516,2.0062 l -1.855,9.1936 h -4.81488 l 1.79104,-8.88541 a 5.0532899,5.0532899 0 0 0 0.12215,-1.16303 2.5877031,2.5877031 0 0 0 -0.70942,-1.97128 2.959867,2.959867 0 0 0 -2.12833,-0.68035 4.506674,4.506674 0 0 0 -3.07034,1.06415 5.5592003,5.5592003 0 0 0 -1.65148,3.19247 l -1.66309,8.42601 h -4.81488 l 3.30295,-16.60201 h 4.59391 l -0.36636,1.79105 a 7.7514793,7.7514793 0 0 1 5.46035,-2.03527 6.3558641,6.3558641 0 0 1 4.37872,1.48283 z"
     fill="#12100b"
     id="path73"
     style="stroke-width:0.581506" />
  <path
     d="m 316.64018,200.18526 a 8.652814,8.652814 0 0 1 -3.71581,-3.30293 9.2226902,9.2226902 0 0 1 -1.29676,-4.90792 13.101337,13.101337 0 0 1 1.68056,-6.61755 12.124406,12.124406 0 0 1 4.73926,-4.65205 14.136419,14.136419 0 0 1 7.0246,-1.66892 12.519831,12.519831 0 0 1 5.12308,0.98857 7.2630139,7.2630139 0 0 1 3.3611,2.83774 l -3.60533,2.95987 c -1.16302,-1.68638 -2.90756,-2.52956 -5.23358,-2.52956 a 7.914301,7.914301 0 0 0 -4.19847,1.11067 7.635178,7.635178 0 0 0 -2.82031,3.02383 9.0307933,9.0307933 0 0 0 -1.006,4.25663 5.1172555,5.1172555 0 0 0 1.59335,3.96587 q 1.5875,1.46541 4.45431,1.46541 a 7.4898014,7.4898014 0 0 0 5.73948,-2.50049 l 2.98895,3.02965 q -3.20993,3.74491 -9.13548,3.73329 a 12.915255,12.915255 0 0 1 -5.69295,-1.19211 z"
     fill="#12100b"
     id="path77"
     style="stroke-width:0.581506" />
  <path
     d="m 350.65829,185.61855 a 5.3905637,5.3905637 0 0 1 1.63404,4.19848 9.1877999,9.1877999 0 0 1 -0.21515,1.97711 l -1.84918,9.1936 h -4.81489 l 1.75616,-8.88541 a 5.0532899,5.0532899 0 0 0 0.12216,-1.16303 2.6109634,2.6109634 0 0 0 -0.70947,-1.97128 2.9831274,2.9831274 0 0 0 -2.12831,-0.68035 4.4950438,4.4950438 0 0 0 -3.07034,1.06415 5.5243099,5.5243099 0 0 0 -1.65148,3.19247 l -1.66895,8.42601 h -4.80904 l 4.56483,-22.89389 h 4.81488 l -1.54683,7.80381 a 7.815445,7.815445 0 0 1 5.12309,-1.74451 6.3442339,6.3442339 0 0 1 4.44851,1.48284 z"
     fill="#12100b"
     id="path79"
     style="stroke-width:0.581506" />
  <path
     d="m 374.72685,184.38575 -3.30296,16.60199 h -4.56483 l 0.30822,-1.63403 a 7.7398492,7.7398492 0 0 1 -8.67027,0.98275 6.6000967,6.6000967 0 0 1 -2.60514,-2.57606 7.7398492,7.7398492 0 0 1 -0.97112,-3.96587 10.048428,10.048428 0 0 1 1.21535,-4.94863 8.9900878,8.9900878 0 0 1 3.32037,-3.45416 8.8098208,8.8098208 0 0 1 4.65208,-1.25022 q 3.82631,0 5.4022,2.49467 l 0.4303,-2.25044 z m -8.64117,12.17091 a 4.6520504,4.6520504 0 0 0 1.74451,-1.92477 6.2511929,6.2511929 0 0 0 0.62221,-2.83775 3.5937091,3.5937091 0 0 0 -1.00602,-2.68654 3.8146815,3.8146815 0 0 0 -2.79123,-0.98859 4.6520504,4.6520504 0 0 0 -4.25661,2.6226 6.2511929,6.2511929 0 0 0 -0.61641,2.83774 3.5937091,3.5937091 0 0 0 1.0002,2.68657 3.8146815,3.8146815 0 0 0 2.79122,0.98856 4.6520504,4.6520504 0 0 0 2.51213,-0.69782 z"
     fill="#12100b"
     id="path81"
     style="stroke-width:0.581506" />
  <path
     d="m 392.08481,185.03704 a 6.6466173,6.6466173 0 0 1 2.62261,2.57606 7.7921846,7.7921846 0 0 1 0.9711,3.96006 10.06006,10.06006 0 0 1 -1.22116,4.95443 9.019163,9.019163 0 0 1 -3.31459,3.45414 8.9028617,8.9028617 0 0 1 -4.65205,1.25025 c -2.53536,0 -4.32059,-0.81992 -5.37312,-2.46558 l -1.63983,8.18179 h -4.81487 l 4.48923,-22.56244 h 4.56481 l -0.31982,1.62822 a 7.2979043,7.2979043 0 0 1 5.08817,-1.87828 7.4258356,7.4258356 0 0 1 3.59952,0.90135 z m -3.6286,11.51962 a 4.6520504,4.6520504 0 0 0 1.74453,-1.92477 6.2511929,6.2511929 0 0 0 0.61639,-2.83775 3.5937091,3.5937091 0 0 0 -1.00019,-2.68654 3.8146815,3.8146815 0 0 0 -2.79122,-0.98859 4.599715,4.599715 0 0 0 -2.5005,0.69781 4.704386,4.704386 0 0 0 -1.74452,1.92479 6.2511929,6.2511929 0 0 0 -0.61638,2.83774 3.6111542,3.6111542 0 0 0 0.98857,2.68657 3.7507157,3.7507157 0 0 0 2.77377,0.98856 4.6520504,4.6520504 0 0 0 2.52955,-0.69782 z"
     fill="#12100b"
     id="path83"
     style="stroke-width:0.581506" />
  <path
     d="m 439.69856,184.66487 a 11.100957,11.100957 0 0 1 3.5937,-0.52335 l -0.86644,4.44271 c -0.58151,-0.0405 -0.94205,-0.0638 -1.11067,-0.0638 a 5.3265978,5.3265978 0 0 0 -3.48904,1.0816 5.6347964,5.6347964 0 0 0 -1.74453,3.3611 l -1.60496,8.02478 h -4.81488 l 3.30297,-16.602 h 4.56483 l -0.40126,1.97711 a 6.2337478,6.2337478 0 0 1 2.57028,-1.69799 z"
     fill="#12100b"
     id="path89"
     style="stroke-width:0.581506" />
  <use
     xlink:href="#symbol2189"
     id="use2192" />
  <use
     xlink:href="#symbol2189"
     id="use2262"
     transform="translate(96.675231)" />
  <use
     xlink:href="#symbol2189"
     id="use2303"
     transform="translate(205.34133)" />
  <use
     xlink:href="#symbol2390"
     id="use2393" />
  <use
     xlink:href="#symbol2390"
     id="use2424"
     transform="translate(162.46705)" />
</svg>
