<?xml version="1.0" encoding="UTF-8" standalone="no"?>
<!-- Created with Inkscape (http://www.inkscape.org/) -->

<svg
   version="1.1"
   id="svg1049"
   width="540.5733"
   height="380"
   viewBox="0 0 540.5733 380"
   xmlns="http://www.w3.org/2000/svg"
   xmlns:svg="http://www.w3.org/2000/svg">
  <defs
     id="defs1053" />
  <g
     id="g1544">
    <path
       d="M 123.49946,120.61867 V 86.769341 H 0 V 281.5188 H 123.49946 V 247.66667 H 44.799466 v -43.448 H 112.3328 v -40.496 H 44.799466 v -43.104 h 78.699994"
       style="fill:#2d286c;fill-opacity:1;fill-rule:nonzero;stroke:none;stroke-width:0.133333"
       id="path1061" />
    <path
       d="m 273.63599,17.754676 c 0,-9.8066667 -7.95066,-17.75599983 -17.75733,-17.75599983 -9.80667,0 -17.75867,7.94933313 -17.75867,17.75599983 0,9.807999 7.952,17.758666 17.75867,17.758666 9.80667,0 17.75733,-7.950667 17.75733,-17.758666"
       style="fill:#2d286c;fill-opacity:1;fill-rule:nonzero;stroke:none;stroke-width:0.133333"
       id="path1063" />
    <path
       d="m 223.43333,20.085342 c 1.988,14.153333 15.75733,25.113333 32.44533,25.113333 18.052,0 32.69067,-12.829333 32.69067,-28.651999 v -2.422667 h 20.17866 c 0,0 4.84267,17.354666 -10.09066,32.287999 -14.93334,14.933333 -16.94934,13.72 -16.94934,13.72 L 255.87866,158.20534 232.87199,59.325341 c 0,0 -13.31733,-3.229333 -19.776,-12.511999 -6.45733,-9.281333 -11.3,-12.106667 -11.3,-26.636 l 21.63734,-0.092"
       style="fill:#2d286c;fill-opacity:1;fill-rule:nonzero;stroke:none;stroke-width:0.133333"
       id="path1065" />
    <path
       d="M 189.284,281.5188 H 144.88933 L 178.792,75.872008 l 77.08666,115.429332 78.7,-115.429332 34.708,205.646792 h -46.81467 l -22.604,-97.37613 -42.78133,85.45467 -45.604,-80.89867 -22.19866,92.82013"
       style="fill:#2d286c;fill-opacity:1;fill-rule:nonzero;stroke:none;stroke-width:0.133333"
       id="path1067" />
    <path
       d="m 459.15732,244.22934 h -23.67066 v -42.78 h 27.54533 c 0,0 21.952,-1.54 21.952,21.38933 0,23.88787 -25.82667,21.39067 -25.82667,21.39067 z M 435.48666,122.79467 h 25.82933 c 0,0 20.58266,2.01734 20.58266,21.39067 0,19.37067 -24.21466,21.38933 -24.21466,21.38933 h -22.19733 z m 55.27999,58.41733 c 0,0 37.94,-8.07333 37.94,-35.51866 0,-6.85867 0,-11.14933 0,-13.72133 0,0 -2.94533,-38.981336 -51.25733,-42.377336 -48.83333,-3.430667 -87.98133,-3.430667 -87.98133,-3.430667 V 281.5188 h 86.36666 c 0,0 57.30934,1.39574 57.30934,-54.2988 0,-46.41466 -42.37734,-46.008 -42.37734,-46.008"
       style="fill:#2d286c;fill-opacity:1;fill-rule:nonzero;stroke:none;stroke-width:0.133333"
       id="path1069" />
    <path
       d="m 127.9396,316.8188 v -15.336 c -16.84947,0 -30.824002,14.23693 -33.450536,32.89067 H 0 v 12.9156 H 94.516131 C 97.208398,365.85213 111.14266,380 127.9396,380 v -16.164 c -9.66454,-2.28813 -18.0036,-11.224 -18.0036,-23.09333 0,-11.7348 6.5,-22.3776 18.0036,-23.92387"
       style="fill:#2d286c;fill-opacity:1;fill-rule:nonzero;stroke:none;stroke-width:0.133333"
       id="path1071" />
    <path
       d="m 161.84,358.388 c -9.13867,0 -16.54534,-7.40773 -16.54534,-16.5468 0,-9.1396 7.40667,-16.54907 16.54534,-16.54907 9.13866,0 16.548,7.40947 16.548,16.54907 0,9.13907 -7.40934,16.5468 -16.548,16.5468 z M 537.18132,335.3812 H 195.11333 c -3.02,-15.62813 -16.76,-27.44266 -33.27333,-27.44266 -18.72267,0 -33.9004,15.17866 -33.9004,33.90266 0,18.72133 15.17773,33.90151 33.9004,33.90151 16.51333,0 30.25333,-11.81458 33.27333,-27.44271 h 342.06799 v -12.9188"
       style="fill:#2d286c;fill-opacity:1;fill-rule:nonzero;stroke:none;stroke-width:0.133333"
       id="path1073" />
    <path
       d="m 536.93465,298.32134 c 0,5.80933 -4.152,9.73173 -9.03466,9.73173 v -0.0317 c -5.01067,0.0317 -9.05867,-3.89067 -9.05867,-9.7 0,-5.82294 4.048,-9.6932 9.05867,-9.6932 4.88266,0 9.03466,3.87026 9.03466,9.6932 z m 3.64267,0 c 0,-8 -5.99333,-12.652 -12.67733,-12.652 -6.71467,0 -12.712,4.652 -12.712,12.652 0,7.9948 5.99733,12.648 12.712,12.648 6.684,0 12.67733,-4.6532 12.67733,-12.648 z m -14.78267,1.06666 h 1.376 l 3.13467,5.7172 h 3.45467 l -3.48667,-5.94533 c 1.81467,-0.14947 3.28267,-1.04533 3.28267,-3.552 0,-3.10947 -2.07467,-4.10787 -5.58667,-4.10787 h -5.08 v 13.6052 h 2.90533 z m 0,-2.3016 v -3.276 h 2.04534 c 1.10666,0 2.61333,0.0989 2.61333,1.49227 0,1.5052 -0.77333,1.78373 -2.072,1.78373 h -2.58667 v 0"
       style="fill:#2d286c;fill-opacity:1;fill-rule:evenodd;stroke:none;stroke-width:0.133333"
       id="path1075" />
  </g>
</svg>
