<svg xmlns="http://www.w3.org/2000/svg" width="68.48" height="67.53" viewBox="0 0 18.2 18.1"><g fill="#0a70a3"><path d="M8.55 2.65c.6-.47 1.35-.08 1.85.35.53.4 1.08.86 1.56 1.33l.09.05a25.93 25.93 0 0 1 3.6 4.06c.16.26.3.55.21.88-.34.85-1.03 1.53-1.63 2.27A27.5 27.5 0 0 1 10 15.44c-.32.22-.74.42-1.11.25-1.13-.6-2.1-1.57-3.08-2.46a21.34 21.34 0 0 1-3.18-3.61c-.13-.18-.17-.4-.17-.65.12-.45.42-.82.72-1.2a29.6 29.6 0 0 1 3.56-3.7l.14-.11c.54-.48 1.09-.9 1.66-1.31m1.75-1.37L9.63.32C9.54.27 9.44.2 9.35.16c-.2-.08-.42.02-.58.15L7.55 1.9A33 33 0 0 1 .7 8.34c-.2.16-.5.31-.56.57-.07.23.06.43.2.57a33.35 33.35 0 0 1 5.7 4.96c.31.32.56.64.86.95.51.67 1.1 1.35 1.57 2.07.15.16.17.4.4.48.18.06.4.1.57 0l.17-.17a33.9 33.9 0 0 1 7.75-7.82c.3-.27.87-.36.88-.86a.78.78 0 0 0-.35-.58h-.05a30.13 30.13 0 0 1-4.31-3.57L12.05 3.4c-.6-.67-1.19-1.41-1.75-2.12M8.77 3.02c.61-.42 1.16.16 1.63.5a24.66 24.66 0 0 1 4.88 5.07c.17.24.24.62.1.9-.35.57-.8 1.1-1.24 1.62v.03a32.86 32.86 0 0 1-3.49 3.33c-.6.37-1.16 1.18-1.94.68a28.14 28.14 0 0 1-4.93-4.65c-.24-.39-.62-.7-.8-1.13-.23-.58.3-1 .6-1.45 1.46-1.81 3.3-3.6 5.19-4.9m.39 1.2-.17.52-.83 2.39c.2.02.47 0 .67.02v.02l-.12 2.7.02.02c.27.03.6.04.87 0v-.05l-.11-2.61.02-.09.73-.01c-.37-.97-.72-1.94-1.06-2.92ZM6.33 7.93c-.47.24-1.15.6-1.08 1.23.1.35.48.58.78.72 1.65.73 3.85.75 5.6.21.42-.17 1-.4 1.08-.94 0-.43-.46-.7-.8-.87v-.02c.12-.05.25-.1.37-.1v-.02c-.58-.1-1.15-.25-1.71-.4.1.25.18.5.27.77.18-.06.35-.1.53-.12.3.11.73.28.77.65.04.35-.35.52-.59.66a6.85 6.85 0 0 1-4.06.16c-.36-.12-.9-.27-.94-.74.26-.61.94-.74 1.5-.9-.29-.18-.58-.35-.87-.56-.3.02-.58.15-.85.27m2.36 2.69c-.05.96-.06 1.84-.13 2.8.38.03.8.07 1.2.01l-.11-2.67-.02-.13c-.31.01-.6.02-.94-.01"/><path d="M12.22 16.1c-.33 0-.63.23-.63.63s.3.63.63.63a.6.6 0 0 0 .63-.63.6.6 0 0 0-.63-.63m0 1.11c-.25 0-.45-.19-.45-.48s.2-.48.45-.48.45.2.45.48c0 .29-.2.48-.45.48m.28-.61c0-.16-.1-.2-.27-.2h-.26v.67h.15v-.29h.07l.15.29h.17l-.17-.3c.1 0 .16-.05.16-.17m-.25.07h-.13v-.17h.1c.05 0 .13.01.13.08 0 .08-.04.09-.1.09"/></g></svg>