<?xml version="1.0" encoding="UTF-8" standalone="no"?>
<!-- Created with Inkscape (http://www.inkscape.org/) -->

<svg
   width="223.99998"
   height="32"
   viewBox="0 0 59.266663 8.4666666"
   version="1.1"
   id="svg5"
   xml:space="preserve"
   xmlns="http://www.w3.org/2000/svg"
   xmlns:svg="http://www.w3.org/2000/svg"><defs
     id="defs2" /><g
     id="g4117"><path
       fill="currentColor"
       d="M 2.1175104,6.3499956 2.4036902,5.298437 A 2.1069274,2.1069274 0 0 1 2.1166704,4.2333315 c 0,-1.1690332 0.9476327,-2.1166636 2.1166652,-2.1166636 1.1690326,0 2.1166653,0.9476304 2.1166653,2.1166636 0,1.1690337 -0.9476327,2.1166641 -2.1166653,2.1166641 A 2.1069274,2.1069274 0 0 1 3.1686497,6.0631876 Z M 3.4694295,3.2401929 a 0.20341141,0.20341141 0 0 0 -0.078527,0.021168 0.27368466,0.27368466 0 0 0 -0.0622,0.048258 c -0.0254,0.023916 -0.0398,0.044664 -0.055267,0.06477 a 0.57763761,0.57763761 0 0 0 -0.1195858,0.355176 c 4.266e-4,0.1037165 0.027533,0.2046814 0.069847,0.2990847 0.086573,0.1909234 0.2290265,0.3930649 0.4171997,0.5803895 0.045267,0.045084 0.089533,0.090381 0.1371599,0.1325032 a 1.9998241,1.9998241 0 0 0 0.8127924,0.4330693 l 0.1204399,0.018414 c 0.0392,0.0021 0.07832,-8.4e-4 0.1176933,-0.00276 a 0.42121614,0.42121614 0 0 0 0.1763132,-0.048894 1.0223487,1.0223487 0 0 0 0.081073,-0.046566 c 0,0 0.00913,-0.00594 0.026467,-0.01905 0.028533,-0.021168 0.046133,-0.036192 0.069853,-0.06096 0.0176,-0.018204 0.0328,-0.039582 0.044467,-0.063923 0.016533,-0.0345 0.033,-0.1003295 0.0398,-0.1551514 0.00467,-0.04191 0.00333,-0.06477 0.00267,-0.078952 -6e-4,-0.02265 -0.019667,-0.046146 -0.0402,-0.056094 l -0.123197,-0.055248 c 0,0 -0.1841532,-0.080222 -0.2965465,-0.1314449 a 0.10540987,0.10540987 0 0 0 -0.037467,-0.00868 0.1020232,0.1020232 0 0 0 -0.080007,0.02688 v -4.23e-4 c -0.00133,0 -0.015267,0.012066 -0.1682798,0.1974843 a 0.07408324,0.07408324 0 0 1 -0.077893,0.027516 0.29971963,0.29971963 0 0 1 -0.040467,-0.013968 c -0.0262,-0.011004 -0.035333,-0.01524 -0.053333,-0.02307 l -0.00133,-4.23e-4 A 1.2721151,1.2721151 0 0 1 4.0185824,4.4676365 c -0.026667,-0.023286 -0.0514,-0.048684 -0.076833,-0.073237 A 1.3326517,1.3326517 0 0 1 3.7258493,4.1260071 l -0.012467,-0.020106 a 0.19536809,0.19536809 0 0 1 -0.0216,-0.043392 c -0.00807,-0.031116 0.012933,-0.056094 0.012933,-0.056094 0,0 0.0514,-0.056304 0.075353,-0.086783 a 0.92709884,0.92709884 0 0 0 0.055667,-0.078952 c 0.024933,-0.040218 0.0328,-0.081492 0.019667,-0.1134532 C 3.7961363,3.5824473 3.7347493,3.4383023 3.671676,3.2952157 3.659209,3.2668537 3.622143,3.2465317 3.588496,3.2425117 c -0.0114,-0.00126 -0.022867,-0.00252 -0.034267,-0.00336 a 0.71649079,0.71649079 0 0 0 -0.085307,8.4e-4 z"
       id="path985"
       style="fill:#ffffff;stroke-width:0.211667" /><path
       fill="currentColor"
       d="m 21.537077,4.5508343 h 0.529166 L 22.27791,3.704168 H 21.537077 V 3.2808343 c 0,-0.2180167 0,-0.4233338 0.423333,-0.4233338 h 0.3175 v -0.7112 c -0.069,-0.0091 -0.329567,-0.029634 -0.604733,-0.029634 -0.574674,0 -0.98276,0.3507319 -0.98276,0.9948337 V 3.7041671 H 20.05541 v 0.8466663 h 0.635007 v 1.7991664 h 0.84666 z"
       id="path1039"
       style="fill:#ffffff;fill-opacity:1;stroke-width:0.211667" /><path
       d="m 12.175916,5.7945864 0.06578,-0.9935394 1.803881,-1.6253647 c 0.07985,-0.072812 -0.01645,-0.1080449 -0.122144,-0.044631 L 11.69678,4.5379791 10.733776,4.2326359 c -0.206701,-0.058717 -0.209044,-0.2019962 0.04693,-0.3053431 l 3.751027,-1.4468566 c 0.171457,-0.07751 0.335876,0.042281 0.27011,0.3053437 l -0.638875,3.0088037 c -0.04458,0.2137402 -0.173807,0.2654133 -0.352318,0.1667639 L 12.838256,5.2426169 12.370843,5.6959336 c -0.05398,0.054023 -0.09865,0.09865 -0.194952,0.09865 z"
       fill="currentColor"
       id="path1012"
       style="fill:#ffffff;stroke-width:0.23488" /><path
       fill="currentColor"
       d="m 31.75,2.9180052 c -0.155817,0.070825 -0.323774,0.1173676 -0.497805,0.1396274 0.178078,-0.10725 0.315681,-0.2772315 0.380436,-0.4816133 -0.167957,0.1011792 -0.354128,0.1720049 -0.550414,0.2124761 -0.159864,-0.1740278 -0.384482,-0.275207 -0.639455,-0.275207 -0.475545,0 -0.864069,0.3885278 -0.864069,0.8681171 0,0.068802 0.0081,0.1355806 0.02227,0.1983121 -0.720398,-0.036427 -1.361874,-0.3824575 -1.788851,-0.9065665 -0.07488,0.1274859 -0.117369,0.2772315 -0.117369,0.4350708 0,0.3015142 0.15177,0.5686275 0.386509,0.720396 -0.143682,0 -0.277233,-0.040474 -0.394603,-0.1011792 v 0.00607 c 0,0.4209057 0.299494,0.7730092 0.696111,0.8519297 a 0.85395261,0.85395261 0 0 1 -0.39055,0.014161 0.86609417,0.86609417 0 0 0 0.809434,0.6030284 1.7242963,1.7242963 0 0 1 -1.078568,0.3723393 c -0.06881,0 -0.137603,-0.00406 -0.206405,-0.012141 0.384477,0.2468774 0.841808,0.3905517 1.331514,0.3905517 1.594586,0 2.470801,-1.3234243 2.470801,-2.4707968 0,-0.038448 0,-0.074873 -0.0022,-0.1133203 0.169983,-0.1214156 0.315681,-0.2752075 0.43305,-0.4512598 z"
       id="path1021"
       style="fill:#ffffff;stroke-width:0.202358" /><path
       fill="currentColor"
       d="m 37.807247,4.9164123 c -0.111334,0.5829175 -0.247007,1.1417055 -0.649374,1.4335875 -0.12404,-0.880938 0.18224,-1.5423822 0.324687,-2.244677 -0.242773,-0.4085077 0.0292,-1.2301803 0.5408,-1.0276195 0.629693,0.2489146 -0.545247,1.5180409 0.243407,1.6767875 0.82358,0.165308 1.1597,-1.4287193 0.64896,-1.9470803 C 38.17808,2.0585499 36.7682,2.7898415 36.94176,3.8619115 36.98389,4.1239495 37.2546,4.2033227 37.049927,4.5650528 36.577707,4.460492 36.43674,4.0879667 36.45494,3.5914073 36.48414,2.7786246 37.18496,2.2098882 37.888107,2.1309384 38.7773,2.0312455 39.61188,2.457533 39.72724,3.2938101 39.856987,4.238035 39.325927,5.2607865 38.374927,5.1871278 38.11712,5.1670208 38.009173,5.0391762 37.807247,4.9164123 Z"
       id="path994"
       style="fill:#ffffff;stroke-width:0.211662" /><path
       fill="currentColor"
       d="m 53.339996,5.9266664 q -0.174626,0 -0.298866,-0.1242487 Q 52.916663,5.6779584 52.916663,5.5033331 V 2.9633333 q 0,-0.1746251 0.124467,-0.2988731 0.12424,-0.1244604 0.298866,-0.1244604 h 3.386667 q 0.174627,0 0.299087,0.1244604 0.124246,0.124248 0.124246,0.2988731 v 2.5399998 q 0,0.1746253 -0.124246,0.2990846 -0.12446,0.1242487 -0.299087,0.1242487 z M 55.03333,4.407958 q 0.02647,0 0.05547,-0.00805 0.0292,-0.00783 0.05567,-0.023706 l 1.497533,-0.9366205 q 0.04233,-0.02646 0.06353,-0.06604 0.0212,-0.039792 0.0212,-0.087418 0,-0.1058334 -0.08996,-0.1587504 -0.08995,-0.052914 -0.185206,0.00528 l -1.418164,0.889 -1.418167,-0.8890002 q -0.09525,-0.058206 -0.185206,-0.00276 -0.08995,0.055668 -0.08995,0.15621 0,0.052914 0.0212,0.092498 0.0212,0.039792 0.06347,0.06096 l 1.49754,0.9366256 q 0.02647,0.015876 0.05567,0.023706 0.02893,0.00805 0.05547,0.00805 z"
       id="path1003"
       style="fill:#ffffff;stroke-width:0.211667" /><path
       fill="currentColor"
       d="M 48.683337,4.0215287 A 0.56562181,0.56562181 0 0 0 47.748271,3.5937773 C 47.451362,3.4364637 47.097865,3.3410151 46.728439,3.3198038 l 0.09186,-0.5514812 0.385344,0.060098 a 0.42775152,0.42775152 0 1 0 0.04414,-0.2792757 l -0.524988,-0.081309 a 0.14140544,0.14140544 0 0 0 -0.160812,0.1166593 l -0.122002,0.7335408 c -0.385332,0.015908 -0.756514,0.1113565 -1.065817,0.2757408 a 0.56562181,0.56562181 0 0 0 -0.753002,0.84313 1.0852868,1.0852868 0 0 0 -0.04083,0.2916487 c 0,0.3870993 0.212113,0.7494457 0.599195,1.0163534 0.387075,0.2669022 0.860787,0.3977002 1.380436,0.3977002 0.519685,0 1.009338,-0.1414021 1.380514,-0.3977002 0.371176,-0.2562963 0.599196,-0.6292541 0.599196,-1.0163534 A 1.0623084,1.0623084 0 0 0 48.50084,4.4386748 0.57269206,0.57269206 0 0 0 48.682886,4.0215287 Z m -3.110899,0.4949192 a 0.28281093,0.28281093 0 1 1 0.28282,0.2828106 0.28281093,0.28281093 0 0 1 -0.28282,-0.2828106 z m 1.638517,0.9032254 a 1.4158222,1.4158222 0 0 1 -1.297396,0 0.14140544,0.14140544 0 0 1 0.129025,-0.2509942 1.1347787,1.1347787 0 0 0 1.03937,0 0.14140544,0.14140544 0 0 1 0.129001,0.2509942 z m 0.05827,-0.6204148 a 0.28281093,0.28281093 0 1 1 0.282814,-0.2828106 0.28281093,0.28281093 0 0 1 -0.282814,0.2828106 z"
       id="path1030"
       style="fill:#ffffff;stroke-width:0.0176757" /></g></svg>
