<?xml version="1.0" encoding="UTF-8" standalone="no"?>
<!-- Created with Inkscape (http://www.inkscape.org/) -->

<svg
   width="71.939453mm"
   height="55.711739mm"
   viewBox="0 0 71.939453 55.711739"
   version="1.1"
   id="svg5"
   xml:space="preserve"
   xmlns="http://www.w3.org/2000/svg"
   xmlns:svg="http://www.w3.org/2000/svg"><defs
     id="defs2" /><g
     id="g814"><path
       d="m 55.39422,40.37155 v 10.447197 c 0,2.653542 0,2.822491 1.91982,3.049316 v 0.817453 h -6.32461 v -0.846254 c 1.92053,-0.225449 1.92053,-0.42347 1.92053,-3.049196 v -6.042978 c -0.085,-1.495848 0.27269,-1.354313 -1.58186,-0.764116"
       style="fill:#752f8b;fill-opacity:1;fill-rule:nonzero;stroke:none;stroke-width:0.0352778"
       id="path1787" /><path
       d="m 68.26849,45.848425 c 0.16933,-1.947298 -0.67733,-4.347986 -3.13408,-4.347986 -2.39959,0 -3.38878,2.428946 -3.44487,4.347986 z m -6.71936,1.073503 c 0,2.767507 0.81845,6.860421 4.34799,6.860421 1.89089,0 3.52848,-1.044141 4.6295,-2.568949 l 0.48013,0.451308 c -1.18498,1.949105 -3.16194,3.331553 -5.47687,3.331553 -3.95288,0 -6.8326,-3.218417 -6.8326,-7.086555 0,-3.613926 2.51319,-7.340248 6.46536,-7.340248 3.52954,0 5.95735,3.02119 5.95735,6.35247 h -9.57086"
       style="fill:#752f8b;fill-opacity:1;fill-rule:nonzero;stroke:none;stroke-width:0.0352778"
       id="path1789" /><path
       d="m 55.22771,27.752441 c 0.54469,-1.479585 0,-2.414164 -1.01212,-2.414164 -1.16911,0 -2.33645,1.713018 -2.80423,2.803313 -0.85619,1.791477 -1.63513,4.362063 -2.10185,6.075363 1.47884,-1.40215 4.90608,-3.894596 5.9182,-6.464512 z m -34.8136,-0.701146 c -3.34864,2.647774 -5.8408,6.698792 -6.23012,9.89196 -0.31172,2.647245 0.54447,4.828117 3.34863,4.983692 2.95893,0.155999 6.0747,-2.414446 8.25486,-4.750505 1.71334,-1.869052 3.2705,-4.672789 3.4265,-6.309079 0.0783,-0.77858 0,-1.401727 -0.38929,-2.024768 -0.15558,-0.311291 -0.31172,-0.389431 -0.23453,-0.545147 0.0789,-0.155858 0.39067,0 0.62382,0.233856 0.23442,0.233327 1.01219,1.167765 0.85647,2.959065 -0.0775,2.103579 -1.48029,4.595636 -3.1925,6.542652 -2.02519,2.180873 -5.99641,4.828364 -9.50076,4.594931 -3.50492,-0.233574 -5.21822,-2.492057 -4.82921,-5.84066 0.38918,-3.115345 3.03749,-7.165693 7.16569,-10.281144 3.73765,-2.803208 8.41097,-4.750365 12.46036,-4.750365 4.44042,0 9.42552,1.713301 8.64588,8.177284 -0.46708,4.751458 -8.80188,15.187225 -13.94196,20.32688 v 0.078 c 2.49259,-1.713865 5.06194,-3.660493 8.87783,-6.464371 3.27308,-2.335777 7.16774,-5.217266 9.65871,-7.164141 0.93521,-2.648056 2.02565,-5.452498 3.42759,-7.710982 1.86866,-2.959594 3.89325,-4.439073 5.52908,-4.439073 1.40124,0 2.41406,1.246046 1.79106,3.115204 -1.01212,3.19278 -4.9837,5.919365 -7.08696,7.94438 -1.1684,4.828117 -2.64865,11.370346 -5.13926,14.718983 v 0.07828 c 2.64689,-2.570339 9.34402,-8.177425 14.01727,-12.383207 7.47677,-6.776085 10.20233,-11.838023 10.66976,-14.563937 0.15628,-1.090295 0.0776,-2.103014 -0.46743,-2.648021 -0.54469,-0.467184 -1.09114,-0.311432 -1.01247,-0.545147 0.0776,-0.155575 0.54539,-0.233539 0.77823,-0.233539 2.25919,0 3.34892,1.791405 3.19299,3.815856 -0.38876,3.193062 -3.73839,8.099849 -12.38215,15.187225 -6.1528,5.061974 -12.22692,10.124335 -17.28858,14.95283 -0.46814,0.467155 -1.24672,1.168026 -2.18052,1.168026 -0.77929,0 -0.77929,-0.700871 -0.31185,-1.323884 2.6483,-3.582483 4.28307,-11.292477 6.07412,-15.731551 v -0.07786 c -1.4799,1.246012 -6.2297,4.828364 -10.04841,7.632278 -3.27036,2.336165 -10.20135,7.398815 -13.08312,9.267437 -0.46729,0.311986 -1.09086,0.779004 -1.63573,0.779004 -0.93472,0 -1.16815,-0.623013 -0.46743,-1.479599 2.96016,-3.115332 6.46466,-7.009258 9.89129,-11.837763 3.42608,-4.828787 6.4654,-10.046865 7.08805,-14.018931 0.62406,-4.049642 -1.55882,-5.9188 -4.75199,-5.9188 -3.89339,0 -8.33356,2.102732 -11.60392,4.594648"
       style="fill:#752f8b;fill-opacity:1;fill-rule:nonzero;stroke:none;stroke-width:0.0352778"
       id="path1791" /><path
       d="m 55.25134,38.477169 c 0,0.773218 -0.62794,1.401198 -1.40158,1.401198 -0.7747,0 -1.40265,-0.62798 -1.40265,-1.401198 0,-0.776112 0.62795,-1.402998 1.40265,-1.402998 0.77364,0 1.40158,0.626886 1.40158,1.402998"
       style="fill:#752f8b;fill-opacity:1;fill-rule:nonzero;stroke:none;stroke-width:0.0352778"
       id="path1793" /><path
       d="m 0.34987,47.566418 c 0.13133,0.754627 0.20202,0.825606 0.38103,0.837847 0.17019,0.02081 0.52641,0.02014 1.61713,-0.06103 l 1.8642,-0.138924 c 0.55922,-0.04159 1.02418,-0.09285 1.33918,-0.141781 0.23181,-0.03433 0.26391,-0.104881 0.2825,-0.233575 0.0126,-0.08544 0.0199,-0.366571 0.0329,-0.443477 0.014,-0.06061 0.0208,-0.09493 0.0486,-0.0974 0.0653,-0.005 0.23675,0.03362 0.26596,0.04794 0.0324,0.685588 0.0487,1.032298 0.0813,1.343872 0.0276,0.371369 0.0878,0.8001 0.099,0.824336 0.004,0.05083 -0.0302,0.09606 -0.0672,0.106927 -0.0911,0.03281 -0.17349,0.05542 -0.23015,0.05115 -0.0635,-0.597958 -0.124,-0.780415 -0.37797,-0.795549 -0.14993,0.0032 -0.47917,-0.01475 -1.52315,0.06283 l -2.22816,0.165488 c -1.22094,0.09137 -1.31341,0.106821 -1.35737,0.398533 -0.002,0.09317 -0.0117,0.221615 -0.003,0.458611 0.003,0.03362 -0.0241,0.05264 -0.0521,0.05472 -0.028,0.0022 -0.066,-0.0035 -0.1429,-0.03168 -0.0677,-0.02935 -0.087,-0.03598 -0.0981,-0.06064 -0.0145,-0.0671 -0.0183,-0.117122 -0.026,-0.218828 -0.007,-0.100895 -0.0193,-0.389043 -0.0518,-0.827934 -0.0422,-0.438221 -0.0943,-1.011061 -0.1006,-1.095693 -0.008,-0.110102 5.6e-4,-0.118921 0.0278,-0.129505 l 0.21938,-0.07624"
       style="fill:#752f8b;fill-opacity:1;fill-rule:nonzero;stroke:none;stroke-width:0.0352778"
       id="path1795" /><path
       d="m 2.87995,44.554437 c 0.006,-0.381001 8.3e-4,-0.668867 -0.0149,-0.880534 -0.0295,-0.508388 -0.0663,-0.551356 -0.61585,-0.66989 -0.0276,-0.03429 -0.0431,-0.229305 -0.0333,-0.271744 0.27092,0.02124 0.70004,0.07842 0.98957,0.08364 0.31805,-0.0043 0.58002,-0.02575 0.85134,-0.04657 0.0179,0.0678 0.0263,0.135466 0.0254,0.194698 0.009,0.04272 -0.0196,0.05927 -0.0575,0.07525 -0.10294,0.03239 -0.25358,0.07221 -0.36587,0.09634 -0.25314,0.04685 -0.33886,0.147426 -0.37207,0.485069 -0.0214,0.186584 -0.0258,0.465632 -0.0324,0.897361 -0.006,0.422663 0.002,0.507683 0.0103,0.558518 0.009,0.03376 0.0176,0.05955 0.0546,0.08573 0.0557,0.02575 0.38228,0.08146 1.14847,0.09342 0.68224,0.0102 0.93487,0.01489 1.08533,-0.06805 0.1797,-0.115782 0.23068,-0.410951 0.24144,-1.105606 0.0152,-0.990247 -0.0805,-1.464733 -1.06716,-1.742687 -0.009,-0.0339 0.002,-0.118639 0.0124,-0.203235 0.0192,-0.02508 0.0285,-0.02508 0.0751,-0.02441 0.42983,0.02371 1.02595,0.167993 1.29523,0.283069 0.0554,0.0423 0.0739,0.06805 0.0732,0.110385 -8.1e-4,0.05923 -0.002,0.118498 -0.0157,0.397545 -0.0132,0.253965 -0.0315,0.846667 -0.042,1.548659 -0.0103,0.677439 0.0165,1.3462 0.0343,2.023922 -0.01,0.01651 -0.20574,0.02258 -0.28057,0.01238 -0.0186,0 -0.0371,-0.02575 -0.0371,-0.0339 -0.0688,-0.390525 -0.13353,-0.425803 -0.27365,-0.435998 -0.13974,-0.01902 -0.73727,-0.07098 -1.69058,-0.08544 l -1.617,-0.02466 c -1.24299,-0.01901 -1.65503,0.02575 -1.71153,0.0332 -0.0559,0.0077 -0.1028,0.02399 -0.12306,0.107914 -0.0384,0.0846 -0.0689,0.244863 -0.12815,0.44704 -0.009,0.008 -0.009,0.008 -0.0375,0.008 l -0.2147,-0.01997 c -0.0375,-8.47e-4 -0.0467,-4.23e-4 -0.046,-0.04343 l 0.005,-0.295981 c 0.004,-0.262537 0.0273,-0.583882 0.0445,-1.099961 l 0.0128,-0.820879 c 0.008,-0.516501 -0.0296,-1.135238 -0.0325,-1.55829 0.002,-0.110102 0.0209,-0.160549 0.0499,-0.202177 0.0572,-0.07549 0.0572,-0.07549 0.22475,-0.0387 0.41025,0.0737 0.95223,0.09024 1.19545,0.09412 -0.004,0.220204 -0.0318,0.253259 -0.0882,0.261126 -0.67497,0.108162 -1.01231,0.161925 -1.02223,0.822537 l -0.009,0.583882 c -0.008,0.499534 0.006,0.778581 0.0332,0.872173 0.036,0.111054 0.12898,0.128975 0.34382,0.132574 0.65429,0.01019 1.30858,0.01129 1.96302,0.01266 0.0842,0.0011 0.15061,-0.04822 0.1513,-0.107914 l 0.008,-0.541161"
       style="fill:#752f8b;fill-opacity:1;fill-rule:nonzero;stroke:none;stroke-width:0.0352778"
       id="path1797" /><path
       d="m 3.24238,39.225446 c 0.0485,-0.377861 0.0762,-0.664775 0.085,-0.877112 0.0277,-0.507965 -0.004,-0.554531 -0.53674,-0.735189 -0.0234,-0.03665 -0.0171,-0.232057 -0.002,-0.273014 0.26665,0.05182 0.68695,0.156986 0.97388,0.194027 0.31637,0.03239 0.5793,0.04096 0.85146,0.05045 0.01,0.06946 0.0103,0.137548 0.003,0.196779 0.004,0.04272 -0.026,0.05609 -0.0653,0.06851 -0.10625,0.01969 -0.25975,0.04297 -0.37454,0.05401 -0.25675,0.01764 -0.35306,0.107632 -0.42457,0.439878 -0.0422,0.182034 -0.0779,0.459282 -0.13314,0.887589 -0.0544,0.419735 -0.0558,0.504755 -0.053,0.556049 0.005,0.03485 0.0109,0.06174 0.0447,0.09162 0.0526,0.0321 0.37027,0.124566 1.1304,0.222709 0.67663,0.08735 0.92728,0.11945 1.08617,0.05496 0.19156,-0.09564 0.27573,-0.382799 0.36463,-1.071421 0.12679,-0.98171 0.0856,-1.465404 -0.86335,-1.852366 -0.005,-0.03457 0.015,-0.117545 0.0353,-0.200342 0.0218,-0.02261 0.031,-0.02124 0.0773,-0.01559 0.42428,0.07235 1.00058,0.282928 1.25497,0.426932 0.0503,0.04865 0.0654,0.0769 0.0599,0.11811 -0.007,0.05895 -0.0149,0.118216 -0.0601,0.394088 -0.0418,0.250825 -0.12693,0.837036 -0.21693,1.533066 -0.0868,0.672077 -0.13504,1.339886 -0.19413,2.015138 -0.0116,0.01584 -0.20726,-7.06e-4 -0.28032,-0.01944 -0.0187,-0.0018 -0.0339,-0.02963 -0.0327,-0.03803 -0.0245,-0.395499 -0.085,-0.43755 -0.22296,-0.464008 C 5.61219,40.948419 5.0246,40.829743 4.07898,40.707788 L 2.47523,40.500672 C 1.2423,40.341252 0.82779,40.338747 0.77115,40.339876 c -0.0566,0.0017 -0.10542,0.01199 -0.13436,0.09412 -0.0482,0.07867 -0.0967,0.234526 -0.17831,0.428978 -0.0103,0.0067 -0.0103,0.0067 -0.038,0.0032 l -0.21112,-0.04371 c -0.0372,-0.0049 -0.0464,-0.0063 -0.0409,-0.04836 l 0.0382,-0.293512 c 0.0333,-0.260314 0.093,-0.576862 0.16853,-1.08839 l 0.10515,-0.81414 c 0.0661,-0.512198 0.0988,-1.130935 0.144,-1.551094 0.0139,-0.109431 0.0391,-0.157374 0.0724,-0.195544 0.065,-0.06879 0.065,-0.06879 0.22793,-0.01365 0.39921,0.120156 0.93582,0.198155 1.17657,0.228882 -0.028,0.21844 -0.0602,0.248321 -0.11672,0.249026 -0.68296,0.03115 -1.0243,0.04727 -1.10877,0.702804 l -0.0747,0.578485 c -0.0642,0.495265 -0.0814,0.774736 -0.0655,0.871044 0.0233,0.113277 0.11355,0.14224 0.32659,0.169651 0.64892,0.08407 1.29908,0.159455 1.94952,0.23495 0.083,0.01062 0.15434,-0.03101 0.16205,-0.08957 l 0.0695,-0.537562"
       style="fill:#752f8b;fill-opacity:1;fill-rule:nonzero;stroke:none;stroke-width:0.0352778"
       id="path1799" /><path
       d="m 4.20976,33.970997 c 0.0919,-0.369888 0.1524,-0.651263 0.18535,-0.861307 0.0863,-0.501862 0.0599,-0.551886 -0.44842,-0.791669 -0.0191,-0.03983 0.01,-0.23301 0.0291,-0.272168 0.25894,0.08188 0.66407,0.235091 0.9452,0.305117 0.31034,0.06833 0.57051,0.106786 0.83979,0.147709 0.002,0.07003 -0.006,0.138359 -0.02,0.195685 -9.5e-4,0.04329 -0.0326,0.05292 -0.0727,0.06022 -0.10777,0.0081 -0.26321,0.01323 -0.37828,0.01062 -0.25714,-0.01129 -0.36336,0.06682 -0.47209,0.388585 -0.0633,0.176142 -0.13067,0.447322 -0.23484,0.866246 -0.10196,0.410951 -0.11353,0.494982 -0.11656,0.546382 0.001,0.03517 0.004,0.06202 0.0339,0.09578 0.0482,0.03817 0.35345,0.166899 1.09746,0.351684 0.66212,0.164677 0.90688,0.225602 1.07237,0.179423 0.20108,-0.0725 0.31792,-0.348509 0.48535,-1.021821 0.23908,-0.961178 0.25397,-1.445965 -0.64424,-1.939713 -9.5e-4,-0.03514 0.0284,-0.114935 0.058,-0.194875 0.0242,-0.02025 0.0333,-0.01788 0.0788,-0.0066 0.413,0.120298 0.96093,0.395888 1.1974,0.568149 0.0441,0.05486 0.0562,0.08378 0.046,0.124848 -0.0143,0.05718 -0.0285,0.114935 -0.10527,0.383787 -0.0704,0.244334 -0.22242,0.816928 -0.3919,1.498918 -0.16344,0.656907 -0.28843,1.315614 -0.42471,1.979118 -0.0132,0.01418 -0.20602,-0.02399 -0.27629,-0.05112 -0.0182,-0.0041 -0.0302,-0.03309 -0.0283,-0.04163 C 6.68648,36.096584 6.63098,36.047548 6.49689,36.00592 6.36516,35.95576 5.79479,35.769876 4.86956,35.539195 L 3.30025,35.148917 C 2.09378,34.848915 1.68244,34.798608 1.62608,34.793952 c -0.0564,-0.0058 -0.10598,-5.65e-4 -0.14456,0.07673 -0.0565,0.0732 -0.12265,0.222991 -0.22614,0.405835 -0.011,0.0066 -0.011,0.0066 -0.0383,-2.46e-4 l -0.20464,-0.06865 c -0.0362,-0.009 -0.0455,-0.01143 -0.0351,-0.05221 l 0.0717,-0.287479 c 0.0631,-0.254917 0.15917,-0.562222 0.29284,-1.060944 l 0.19816,-0.796643 c 0.12457,-0.501332 0.22834,-1.112202 0.32163,-1.525058 0.0263,-0.10668 0.0568,-0.151447 0.0941,-0.186196 0.0728,-0.06022 0.0728,-0.06022 0.22793,0.01309 0.38282,0.165241 0.90689,0.304412 1.14281,0.363114 -0.0533,0.213466 -0.0885,0.239501 -0.14511,0.234421 -0.68199,-0.04798 -1.02237,-0.0714 -1.18181,0.569278 l -0.14111,0.566631 c -0.12058,0.484929 -0.17005,0.759989 -0.16495,0.857568 0.01,0.115464 0.0965,0.154481 0.30482,0.20641 0.63514,0.157939 1.27193,0.307869 1.90887,0.457377 0.0818,0.02053 0.15765,-0.01281 0.17197,-0.07056 l 0.13064,-0.525427"
       style="fill:#752f8b;fill-opacity:1;fill-rule:nonzero;stroke:none;stroke-width:0.0352778"
       id="path1801" /><path
       d="M 8.32445,27.752582 C 7.5621,27.673352 6.24733,27.51294 4.25139,27.341667 3.60136,27.288607 3.5519,27.283497 3.32106,27.6513 c -0.0305,0.04135 -0.0427,0.04491 -0.0763,0.0284 -0.0168,-0.008 -0.10019,-0.114406 -0.12265,-0.153812 -0.0226,-0.03926 -0.0244,-0.07786 0.002,-0.130915 0.0706,-0.144675 0.25011,-0.471417 0.32825,-0.63112 0.12927,-0.266382 0.24212,-0.540738 0.37579,-0.814564 0.0185,-0.03817 0.15074,-0.01143 0.24324,0.03334 0.0338,0.01669 0.0554,0.03612 0.0451,0.0787 -0.11451,0.32064 -0.14139,0.439597 -0.0245,0.477485 0.0626,0.02081 0.20352,0.05207 0.33966,0.07084 1.43538,0.19057 3.41548,0.373168 4.21269,0.422769 0.0495,0.0051 0.0923,-0.03983 0.0574,-0.07525 -0.4386,-0.486868 -1.74459,-1.819416 -2.24109,-2.315774 -0.0606,-0.06671 -0.12717,-0.0805 -0.20531,-0.09028 -0.5037,-0.07567 -0.83757,-0.115888 -1.04387,-0.141111 -0.2267,-0.02536 -0.27397,0.0077 -0.45269,0.354153 -0.0114,0.02247 -0.0515,0.04092 -0.0763,0.0284 -0.16552,-0.108585 -0.20232,-0.18288 -0.17639,-0.235797 0.0891,-0.183127 0.23566,-0.441501 0.37275,-0.722912 0.18535,-0.38033 0.26733,-0.613516 0.32304,-0.727886 0.0513,-0.0405 0.29654,0.03196 0.29104,0.08573 -0.14595,0.427743 -0.14291,0.485492 0.11726,0.527932 1.03738,0.175542 3.17225,0.423721 4.41551,0.540032 0.0412,8.47e-4 0.0475,-0.03404 0.008,-0.08114 -0.58483,-0.613939 -2.53696,-2.647245 -3.18851,-3.124588 -0.15695,-0.10474 -0.2322,-0.05676 -0.28511,0.03044 -0.0723,0.106116 -0.14288,0.250543 -0.21125,0.349074 -0.016,0.01129 -0.0368,0.01076 -0.0748,-0.01736 -0.1524,-0.09303 -0.20394,-0.137124 -0.17378,-0.197767 0.0366,-0.07564 0.2843,-0.520594 0.37331,-0.703333 0.11864,-0.242958 0.22394,-0.502602 0.25358,-0.56328 0.0444,-0.09137 0.0799,-0.121356 0.13395,-0.104422 l 0.19621,0.06703 c 0.0167,0.0085 0.0262,0.03175 0.0187,0.04692 -0.20118,0.391936 -0.14979,0.43568 0.54998,1.218671 0.41385,0.474733 1.8197,1.921651 2.89624,3.019813 0.12139,0.134514 0.3846,0.470041 0.61362,0.703615 0.048,0.05196 0.0556,0.121285 0.0334,0.167182 -0.0445,0.09123 -0.12181,0.100718 -0.25798,0.0817 -0.17364,-0.02854 -0.41342,-0.06971 -0.87133,-0.132962 -0.5329,-0.08064 -1.91505,-0.273156 -3.04697,-0.381882 0.58554,0.633483 1.2369,1.345812 2.09352,2.233824 0.21622,0.217982 0.50352,0.546383 0.72785,0.768809 0.0346,0.03542 0.0441,0.05884 0.0413,0.08555 0.007,0.05073 -0.0107,0.108055 -0.0369,0.160972 -0.0185,0.03817 -0.0586,0.05637 -0.13296,0.03884 -0.14471,-0.02342 -0.59905,-0.09412 -1.36095,-0.172791"
       style="fill:#752f8b;fill-opacity:1;fill-rule:nonzero;stroke:none;stroke-width:0.0352778"
       id="path1803" /><path
       d="m 9.91111,20.335182 c -0.0788,0.120544 -0.10926,0.302719 -0.0572,0.478967 0.0857,0.329776 0.35486,0.618066 0.86265,0.951406 0.50038,0.328401 0.95691,0.364631 1.25927,0.330165 0.44729,-0.05112 0.68005,-0.252448 0.79594,-0.429507 0.0606,-0.09165 0.12817,-0.280176 0.0872,-0.438926 -0.062,-0.263455 -0.24585,-0.596406 -0.72238,-0.909391 -0.47692,-0.312914 -1.06038,-0.513997 -1.5525,-0.411692 -0.22889,0.04198 -0.5151,0.188384 -0.66848,0.42157 z m -0.0876,-0.513291 c 0.32508,-0.495301 1.37502,-0.970492 2.44545,-0.267406 0.79707,0.522817 0.91394,1.24781 0.91158,1.387546 0.006,0.450215 -0.0794,0.869703 -0.27877,1.174115 -0.17212,0.261408 -0.70142,0.693843 -1.27649,0.701004 -0.444,0.01185 -0.92191,-0.179987 -1.19556,-0.359551 C 10.10943,22.247308 9.8089,21.888075 9.67813,21.559145 9.56788,21.284084 9.53564,21.060705 9.54389,20.792241 9.56099,20.459713 9.67936,20.041318 9.81867,19.828946 l 0.005,-0.0071"
       style="fill:#752f8b;fill-opacity:1;fill-rule:nonzero;stroke:none;stroke-width:0.0352778"
       id="path1805" /><path
       d="m 16.55878,17.209924 c -0.57273,0.656872 -0.81746,0.938036 -1.00489,1.223786 -0.0168,0.01905 -0.0168,0.01905 -0.0377,3.53e-4 -0.0141,-0.012 -0.0987,-0.08608 -0.12842,-0.12312 -0.0139,-0.01199 -0.0368,-0.04304 -0.0327,-0.06244 0.13973,-0.315737 0.13352,-0.366537 0.0405,-0.458259 -0.168,-0.191911 -0.5315,-0.542572 -1.24298,-1.162755 -0.29573,-0.258587 -0.41095,-0.325614 -0.56529,-0.347487 -0.17113,-0.0025 -0.39617,0.0702 -0.5745,0.274109 -0.12788,0.147108 -0.2268,0.431094 -0.25245,0.801864 -0.004,0.07514 0.0161,0.137583 0.0742,0.199672 0.12813,0.122767 0.54554,0.498122 0.87613,0.786694 0.78204,0.68192 0.82148,0.693914 1.10134,0.443442 0.0462,-0.0381 0.0656,-0.0321 0.0868,-0.01376 0.0214,0.01834 0.15794,0.160161 0.1524,0.166864 -0.05,0.0568 -0.36032,0.426508 -0.46591,0.547864 -0.1222,0.140405 -0.34463,0.452261 -0.40816,0.553508 -0.024,0.01305 -0.14937,-0.08502 -0.22105,-0.15875 0.0248,-0.05715 0.0717,-0.195792 0.0837,-0.252589 0.0234,-0.0695 0.012,-0.113594 -0.06,-0.187325 -0.0735,-0.08643 -0.27506,-0.295981 -0.83866,-0.787753 -0.52105,-0.454378 -0.6871,-0.576791 -0.7772,-0.644172 -0.12376,-0.08537 -0.1476,-0.07267 -0.28706,0.03034 -0.0977,0.08325 -0.13546,0.08467 -0.16785,0.07796 -0.0249,0.0011 -0.14594,-0.05997 -0.14898,-0.08467 0.0218,-0.56515 0.0465,-0.891822 0.0693,-1.017764 0.009,-0.08149 0.0189,-0.106892 0.0577,-0.151694 0.0335,-0.03845 0.0641,-0.04516 0.11356,-0.0021 l 0.5158,0.461081 c 0.0347,-0.239184 0.0706,-0.791987 0.14704,-1.107017 0.0262,-0.100895 0.0772,-0.202142 0.13836,-0.272345 0.30039,-0.344664 0.67179,-0.357716 1.11633,-0.284339 0.0878,-0.541513 0.11839,-0.762 0.19279,-0.988836 0.0449,-0.151694 0.10844,-0.309739 0.23647,-0.456494 0.0945,-0.108303 0.30123,-0.231422 0.51403,-0.24765 0.19456,-0.01023 0.44813,-0.0028 1.10599,0.53728 0.36506,0.30727 0.69607,0.596195 0.98475,0.848078 0.26776,0.233539 0.35775,0.30092 0.40968,0.312561 0.10393,0.02328 0.19734,-0.04163 0.48027,-0.266347 0.0166,-0.0194 0.0422,-0.01975 0.0699,0.0046 0.0285,0.0254 0.14856,0.185561 0.13162,0.204964 l -0.378,0.433917 c -0.21706,0.248708 -0.36837,0.464608 -0.47667,0.617361 -0.0167,0.0194 -0.0346,0.02611 -0.0546,0.01976 -0.0266,-0.012 -0.12248,-0.07267 -0.1506,-0.09772 -0.0139,-0.01235 -0.0281,-0.02469 -0.0186,-0.04974 0.0331,-0.09454 0.0506,-0.214136 -0.023,-0.300919 -0.24253,-0.289983 -0.74993,-0.732367 -0.90494,-0.867481 -0.59161,-0.516114 -0.86406,-0.630414 -1.06881,-0.651933 -0.21319,-0.04022 -0.36672,0.0508 -0.55041,0.261056 -0.15571,0.179211 -0.24334,0.450497 -0.28691,0.727075 -0.009,0.08184 0.007,0.106538 0.0841,0.174272 0.40294,0.362655 1.34553,1.173692 1.62817,1.37548 0.1167,0.07937 0.1349,0.07303 0.46274,-0.2032 0.0164,-0.01905 0.0488,-0.01341 0.0839,0.01729 l 0.1688,0.147461"
       style="fill:#752f8b;fill-opacity:1;fill-rule:nonzero;stroke:none;stroke-width:0.0352778"
       id="path1807" /><path
       d="m 18.19973,11.943304 c -0.17251,-0.19685 -0.69797,-0.307975 -0.96517,-0.07408 -0.038,0.03351 -0.0835,0.110066 -0.0974,0.209902 -0.0616,0.301978 0.13808,0.748595 0.40958,1.032581 0.21911,-0.340431 0.46274,-0.653345 0.68128,-0.981428 0.0324,-0.05362 0.0458,-0.102305 -0.0222,-0.179917 z m -0.97607,-0.536575 c 0.19734,-0.172861 0.53097,-0.2413 0.74994,-0.20955 0.21304,0.02505 0.43162,0.09454 0.66117,0.240947 0.0451,-0.0642 0.13494,-0.205317 0.17904,-0.194028 0.0311,-0.0025 0.05,0.01835 0.0682,0.05221 0.0363,0.08008 0.10241,0.245887 0.0579,0.310092 -0.33472,0.491772 -1.00224,1.38677 -1.19599,1.718028 -0.0256,0.03528 -0.008,0.08114 0.0661,0.165453 0.62893,0.679097 1.2186,0.672394 1.6389,0.304094 0.29309,-0.256116 0.42428,-0.60713 0.45625,-1.007886 0.007,-0.05644 0.0838,-0.122767 0.0956,-0.09631 0.14168,0.174272 0.17184,0.234244 0.17075,0.310091 -0.0526,0.493184 -0.2286,0.895703 -0.38308,1.155348 -0.0583,0.101247 -0.13508,0.180622 -0.20536,0.242358 -0.44538,0.390172 -0.99081,0.34537 -1.15368,0.313972 -0.20627,-0.03034 -0.66189,-0.1778 -1.06232,-0.634647 -0.54198,-0.619478 -0.62964,-1.374775 -0.51979,-1.9431 0.0482,-0.265995 0.19167,-0.564797 0.36971,-0.721078 l 0.007,-0.006"
       style="fill:#752f8b;fill-opacity:1;fill-rule:nonzero;stroke:none;stroke-width:0.0352778"
       id="path1809" /><path
       d="m 20.88913,12.883104 c 0.15614,-0.234244 0.20175,-0.346428 0.078,-0.56762 -0.12609,-0.254352 -0.42817,-0.715786 -0.69067,-1.091494 -0.20906,-0.29845 -0.4155,-0.564445 -0.51883,-0.697442 -0.0536,-0.0762 -0.10308,-0.08749 -0.48108,0.0508 -0.0542,-0.0187 -0.0577,0.0063 -0.1155,-0.135819 -0.016,-0.02258 -0.006,-0.05292 0.0248,-0.09737 0.1863,-0.3690054 0.36283,-0.766586 0.3762,-0.8216194 0.01,-0.029633 0.0325,-0.056797 0.0605,-0.075847 0.0343,-0.024694 0.0849,-0.025753 0.10626,0.00459 0.0982,0.1255889 0.20683,0.2663473 0.2982,0.3968751 0.0263,0.0381 0.055,0.064205 0.0827,0.044803 0.17103,-0.4053417 0.24666,-0.5489222 0.36946,-0.771525 0.0679,-0.1389945 0.18849,-0.2921 0.31348,-0.3792361 0.20109,-0.1404056 0.37733,-0.1837973 0.58953,-0.1608667 0.28762,0.026458 0.57767,0.2342444 0.83538,0.5446889 0.12665,0.1513417 0.25495,0.3347861 0.48563,0.6642806 0.39067,0.5591526 0.6277,0.8840606 0.75156,1.0600966 0.0478,0.06879 0.0597,0.07161 0.0806,0.0575 0.0625,-0.0441 0.2479,-0.207433 0.34657,-0.287867 0.0207,-0.01482 0.0559,0.0063 0.0883,0.05221 0.0318,0.04586 0.0862,0.167923 0.10019,0.203201 0.0135,0.04833 -5.7e-4,0.0575 -0.0283,0.07726 -0.6175,0.431094 -0.80423,0.607483 -1.06758,0.791986 -0.042,0.02928 -0.0765,0.05327 -0.10459,0.02787 L 22.72787,11.64309 c 0.14757,-0.216958 0.1808,-0.331611 0.0591,-0.565503 -0.12637,-0.254 -0.31736,-0.542219 -0.69773,-1.086555 -0.29446,-0.4212167 -0.45159,-0.6311195 -0.74496,-0.7104945 -0.202,-0.052917 -0.3973,-0.00741 -0.59863,0.1329972 -0.16672,0.1164167 -0.35538,0.4081639 -0.43822,0.6145383 -0.025,0.09772 1.4e-4,0.148167 0.0522,0.237067 0.1735,0.278342 0.93984,1.373364 1.22894,1.786819 0.0695,0.09984 0.094,0.105481 0.49734,-0.08573 0.0474,-0.02117 0.0647,-0.01094 0.0795,0.02434 l 0.076,0.198261 -0.58953,0.412045 c -0.27739,0.194028 -0.47241,0.387703 -0.61129,0.484364 -0.0139,0.0099 -0.0317,-3.53e-4 -0.0531,-0.03105 l -0.0985,-0.171097"
       style="fill:#752f8b;fill-opacity:1;fill-rule:nonzero;stroke:none;stroke-width:0.0352778"
       id="path1811" /><path
       d="m 25.26893,6.8932897 c -0.0286,-0.0381 -0.0861,-0.040217 -0.4754,0.070908 -0.0345,0.00635 -0.0505,-0.0067 -0.0488,-0.059619 -0.0222,-0.1770945 -0.0229,-0.1975556 0.0105,-0.2250722 0.24088,-0.2564695 0.44344,-0.5139973 0.71353,-0.8057445 0.011,-0.015875 0.0187,-0.019756 0.0339,-0.027164 0.0153,-0.00776 0.0233,0.00882 0.0488,0.058914 0.25396,0.5838472 0.80546,1.7818806 1.0232,2.2165029 0.2129,0.4258028 0.288,0.5767917 0.34589,0.6731 0.0737,0.1093611 0.11367,0.1520473 0.18507,0.1058334 0.22641,-0.1340556 0.28702,-0.1640417 0.30978,-0.1753306 0.0227,-0.011289 0.0933,0.015875 0.0985,0.044803 l 0.0857,0.2286 c 0.0176,0.053975 0.002,0.061736 -0.0354,0.080433 -0.21939,0.1097139 -0.43988,0.1989667 -0.68213,0.3203223 -0.33334,0.1661583 -0.61115,0.3683 -0.63376,0.3788833 -0.0379,0.019403 -0.0575,0.018344 -0.0815,-0.011289 -0.0446,-0.050447 -0.0862,-0.1340555 -0.11148,-0.1845028 -0.0164,-0.033161 -0.005,-0.049742 0.0176,-0.060325 0.25524,-0.1700389 0.30346,-0.225425 0.23192,-0.4818944 -0.0443,-0.1456973 -0.29143,-0.7535334 -0.56953,-1.2724696 z m -0.84846,-2.794353 c 0.19692,-0.098778 0.41755,0.020814 0.51788,0.2218973 0.14206,0.2839861 0.0441,0.5418667 -0.1524,0.6402917 -0.1819,0.091017 -0.41261,0.00811 -0.52561,-0.2176639 -0.14633,-0.2928056 -0.0139,-0.5580945 0.15258,-0.6409973 l 0.008,-0.00353"
       style="fill:#752f8b;fill-opacity:1;fill-rule:nonzero;stroke:none;stroke-width:0.0352778"
       id="path1813" /><path
       d="m 28.03895,8.5703954 c 0.20739,-0.1905 0.27862,-0.2878667 0.21152,-0.5326945 -0.062,-0.276225 -0.24461,-0.7976306 -0.40996,-1.2244918 -0.1312,-0.339725 -0.26847,-0.6480528 -0.33694,-0.8015111 -0.0338,-0.087489 -0.0792,-0.1100667 -0.47914,-0.065617 -0.0487,-0.031397 -0.0572,-0.00776 -0.0801,-0.1594556 -0.01,-0.026458 0.007,-0.052564 0.0477,-0.0889 0.26885,-0.314325 0.53524,-0.6575778 0.56113,-0.708025 0.0168,-0.026106 0.0451,-0.047272 0.0772,-0.059267 0.0393,-0.015522 0.0884,-0.00423 0.10266,0.030339 0.0648,0.1453445 0.1367,0.307975 0.1936,0.4557889 0.0172,0.043745 0.0389,0.075847 0.0699,0.0635 0.26359,-0.3517194 0.37066,-0.4737805 0.54335,-0.6604 0.0995,-0.1188861 0.25287,-0.2388306 0.39507,-0.2938639 0.22917,-0.088195 0.40996,-0.087842 0.61091,-0.015522 0.27283,0.09525 0.50461,0.3665361 0.681,0.7291917 0.0868,0.1767417 0.16718,0.3859389 0.31228,0.7612945 0.24624,0.6360583 0.39878,1.0082389 0.47611,1.2089695 0.031,0.078317 0.0416,0.083961 0.0661,0.074789 0.0706,-0.027517 0.28896,-0.1421695 0.40432,-0.1964973 0.0238,-0.00953 0.0531,0.01905 0.073,0.071614 0.0204,0.052211 0.0441,0.1837973 0.0494,0.2215445 0.001,0.050094 -0.0145,0.056092 -0.0459,0.068439 -0.70266,0.2712861 -0.92632,0.3975806 -1.22646,0.5136445 -0.0475,0.018344 -0.0864,0.033514 -0.10817,0.00176 L 30.12071,7.8055692 C 30.31612,7.6302386 30.37609,7.5268747 30.31336,7.270758 30.25136,6.9934747 30.13493,6.6682136 29.89543,6.0490885 29.7105,5.5696635 29.60742,5.3283635 29.34185,5.1805496 29.15858,5.0810666 28.95806,5.0785968 28.72862,5.1667916 c -0.1892,0.073731 -0.44235,0.3115028 -0.57228,0.4917723 -0.0471,0.088547 -0.0351,0.1442861 -0.006,0.2430639 0.10195,0.31115 0.58399,1.5578668 0.76549,2.0284724 0.0441,0.1139472 0.0668,0.1248833 0.50408,0.036336 0.0506,-0.00953 0.0657,0.00423 0.071,0.042333 l 0.0268,0.2102556 -0.67151,0.2596444 c -0.31556,0.1220612 -0.55122,0.2631723 -0.70926,0.3242028 -0.0156,0.00635 -0.0303,-0.00811 -0.0439,-0.043039 l -0.0547,-0.1894416"
       style="fill:#752f8b;fill-opacity:1;fill-rule:nonzero;stroke:none;stroke-width:0.0352778"
       id="path1815" /><path
       d="m 35.38607,3.1711311 c 0.37465,-0.067733 0.65793,-0.1277055 0.86325,-0.1834444 0.49318,-0.127 0.52846,-0.1710973 0.53834,-0.7334251 0.0282,-0.033514 0.21696,-0.087136 0.26035,-0.085019 0.0314,0.2695222 0.0578,0.7020278 0.10936,0.9870723 0.0646,0.3115028 0.13547,0.5647972 0.20884,0.8269111 -0.0635,0.029986 -0.12841,0.051506 -0.18697,0.062089 -0.0399,0.016228 -0.0614,-0.00811 -0.0847,-0.041981 -0.0519,-0.09525 -0.11995,-0.2345973 -0.1644,-0.3404306 -0.0949,-0.2398889 -0.2099,-0.3044473 -0.54786,-0.2719917 -0.18662,0.014464 -0.4632,0.064206 -0.889,0.1411111 -0.41646,0.074436 -0.49805,0.099131 -0.546,0.117475 -0.032,0.014817 -0.0554,0.028575 -0.0733,0.070203 -0.0152,0.059267 -0.007,0.390525 0.12841,1.1444112 0.12128,0.6716889 0.1658,0.9203973 0.27534,1.0523362 0.14817,0.1534583 0.44803,0.1471083 1.13383,0.023989 0.97437,-0.1753306 1.42275,-0.3605389 1.5053,-1.3825362 0.0321,-0.014817 0.11642,-0.021167 0.20144,-0.026811 0.0282,0.014111 0.03,0.023636 0.0384,0.069497 0.0596,0.4261556 0.0321,1.0385778 -0.0279,1.3250334 -0.0321,0.062794 -0.0533,0.085372 -0.0953,0.093133 -0.0586,0.010583 -0.11677,0.021167 -0.39335,0.061383 -0.25153,0.035983 -0.83608,0.1315861 -1.52788,0.2557639 -0.66816,0.1202972 -1.31974,0.276225 -1.9812,0.4233333 -0.0186,-0.006 -0.0616,-0.1975555 -0.0666,-0.27305 -0.003,-0.017992 0.0186,-0.041275 0.027,-0.042333 0.36957,-0.1425222 0.39161,-0.2134306 0.3751,-0.3527778 -0.008,-0.1407584 -0.0724,-0.7373056 -0.24186,-1.6756946 L 33.93808,2.8239976 C 33.71802,1.6009169 33.59525,1.2051003 33.57662,1.1507725 c -0.0182,-0.053622 -0.043,-0.096308 -0.12954,-0.099836 -0.0905,-0.021872 -0.25312,-0.020461 -0.46302,-0.040217 -0.0103,-0.00741 -0.0103,-0.00741 -0.0154,-0.034925 l -0.0214,-0.21484168 c -0.006,-0.0366889 -0.008,-0.0458611 0.0338,-0.0529167 l 0.29104,-0.0529167 c 0.25813,-0.0465667 0.57852,-0.0850195 1.08839,-0.16721668 L 35.1687,0.34185276 c 0.50786,-0.0917222 1.1097,-0.24694446 1.52492,-0.33125836 0.1076,-0.01940277 0.16193,-0.009877774 0.20779,0.01023056 0.085,0.04162778 0.085,0.04162778 0.0815,0.21307779 0.007,0.41733614 0.0945,0.95144165 0.13758,1.19133055 -0.21731,0.038806 -0.25506,0.017286 -0.27375,-0.036689 C 36.61108,0.74719435 36.4929,0.42651933 35.84273,0.54364156 l -0.57616,0.10371667 c -0.49156,0.0885472 -0.76316,0.15663335 -0.84998,0.20037779 -0.10156,0.0564444 -0.10199,0.15134168 -0.0632,0.36300828 0.1156,0.6441723 0.23964,1.2862279 0.36406,1.928989 0.0149,0.08255 0.0765,0.1379361 0.13466,0.127 l 0.53382,-0.095603"
       style="fill:#752f8b;fill-opacity:1;fill-rule:nonzero;stroke:none;stroke-width:0.0352778"
       id="path1817" /><path
       d="m 38.94595,5.6896118 c 0.25788,-0.1139472 0.35631,-0.1834444 0.37113,-0.4370916 0.0307,-0.2815167 0.0247,-0.8332612 0.006,-1.2911668 -0.0148,-0.3637139 -0.0466,-0.6992056 -0.0617,-0.8674806 -0.004,-0.093133 -0.0392,-0.1291167 -0.43251,-0.2155472 -0.0356,-0.045156 -0.0522,-0.025753 -0.0243,-0.1763889 -10e-4,-0.028928 0.0233,-0.047978 0.0737,-0.069144 0.35525,-0.2113139 0.7179,-0.4512028 0.75847,-0.4896556 0.0254,-0.019403 0.0579,-0.030692 0.0921,-0.03175 0.0427,-0.00212 0.0857,0.024694 0.0871,0.061383 0.0152,0.1583972 0.0311,0.3354916 0.0374,0.4945944 0.002,0.046214 0.0123,0.083608 0.0462,0.082197 0.3623,-0.2490612 0.50271,-0.3298473 0.72637,-0.4508501 0.13229,-0.080786 0.31609,-0.1446389 0.46849,-0.1506361 0.24518,-0.010583 0.41734,0.047978 0.58385,0.1813278 0.22719,0.1774472 0.35948,0.5090584 0.41028,0.9094612 0.0251,0.1950861 0.0346,0.4191 0.0512,0.8209139 0.0282,0.6819195 0.0536,1.0830279 0.0621,1.2978695 0.004,0.083961 0.0127,0.093133 0.0378,0.092075 0.0762,-0.00317 0.32032,-0.041628 0.44697,-0.056092 0.025,-0.00141 0.0437,0.03563 0.0462,0.091369 0.002,0.056092 -0.0176,0.1880306 -0.0247,0.225425 -0.0152,0.047978 -0.0321,0.048331 -0.066,0.049742 -0.75248,0.031397 -1.00471,0.079375 -1.3261,0.092781 -0.0508,0.00176 -0.0928,0.00388 -0.10265,-0.033514 l -0.0501,-0.1845028 c 0.2413,-0.1040695 0.33091,-0.1823861 0.35419,-0.4455584 0.031,-0.2815167 0.0243,-0.6275917 -0.002,-1.2908139 -0.0215,-0.5139973 -0.0413,-0.7747001 -0.24588,-1.0001251 -0.14147,-0.1531056 -0.33091,-0.2201334 -0.57574,-0.2099028 -0.20285,0.00847 -0.51893,0.1524 -0.69991,0.2815167 -0.0737,0.068792 -0.0794,0.1248833 -0.084,0.2282472 -0.004,0.327025 0.0522,1.6629946 0.073,2.1674668 0.006,0.1210028 0.0233,0.1393473 0.46567,0.1957917 0.0519,0.0067 0.0607,0.025753 0.0536,0.0635 l -0.0423,0.2074334 -0.71861,0.029986 c -0.33831,0.013758 -0.60713,0.071614 -0.77611,0.078669 -0.0169,7.056e-4 -0.0261,-0.017639 -0.0279,-0.05468 l 0.009,-0.1968501"
       style="fill:#752f8b;fill-opacity:1;fill-rule:nonzero;stroke:none;stroke-width:0.0352778"
       id="path1819" /><path
       d="M 45.56512,3.9186673 C 45.58732,3.6205701 45.54782,3.2240478 45.42331,2.9619339 45.321,2.7386256 45.08535,2.4779228 44.70576,2.4500533 c -0.15205,-0.011289 -0.29246,0.04445 -0.44591,0.1732139 -0.16122,0.1195917 -0.24907,0.3852334 -0.26812,0.6459362 -0.0265,0.3637139 0.0829,0.8403167 0.30304,1.0812639 0.25859,0.2903361 0.44873,0.3608917 0.60043,0.3718278 0.31256,0.023636 0.62371,-0.1696861 0.66957,-0.7941028 z m -1.05798,4.0184919 c 0.48966,0.035983 0.83714,-0.06985 1.08162,-0.2769306 0.18027,-0.1467555 0.32103,-0.3234972 0.3369,-0.5471583 0.01,-0.130175 0.0113,-0.2709334 -0.14711,-0.4229806 -0.17497,-0.1629834 -0.41592,-0.2367139 -0.7112,-0.2585861 -0.29562,-0.02152 -0.65263,-0.010231 -0.86748,0.020814 -0.0854,0.012347 -0.19156,0.070203 -0.33725,0.2003777 -0.23425,0.1890889 -0.3362,0.4250973 -0.34643,0.5651501 -0.0124,0.1675694 0.13829,0.6565195 0.98249,0.7186084 z m 0.59831,-5.8515254 c 0.21943,0.016228 0.47308,0.1467556 0.61913,0.2420056 0.0554,0.051153 0.12382,0.046567 0.14076,0.047978 0.14358,0.010583 0.64064,-0.065617 0.81844,-0.052564 0.0674,0.00494 0.15452,0.095603 0.16016,0.1337028 0.006,0.028575 0.0152,0.254 0.0123,0.2913945 -0.004,0.055739 -0.0504,0.1090083 -0.1524,0.1104194 -0.0928,-0.0067 -0.34678,-0.015875 -0.7179,-0.052564 0.11042,0.2331861 0.18838,0.5669139 0.16863,0.8279695 -0.0476,0.6522862 -0.52035,1.1990918 -1.19134,1.4403918 -0.32208,0.1075972 -0.52387,0.2049639 -0.7179,0.3033889 -0.0533,0.024694 -0.0832,0.087842 -0.0857,0.1157111 -0.0116,0.1679222 0.18485,0.2663472 0.41275,0.2832806 0.10124,0.00741 0.63429,0.027517 0.70979,0.033161 0.35524,0.026105 0.67239,0.096308 0.94262,0.3503083 0.11888,0.1118306 0.21131,0.3527778 0.18838,0.6695723 -0.0219,0.29845 -0.10936,0.4519084 -0.36018,0.7422445 -0.48119,0.5461 -0.88089,0.6759223 -1.09855,0.7538861 -0.20003,0.060325 -0.59338,0.097014 -0.83785,0.079375 -0.92075,-0.067733 -1.24778,-0.5789084 -1.22061,-0.9517946 0.0236,-0.3171472 0.16051,-0.5693833 0.37429,-0.7037917 0.22331,-0.1520472 0.40146,-0.2705805 0.66887,-0.43815 -0.35031,-0.2042583 -0.54363,-0.339725 -0.52352,-0.6194778 0.006,-0.084314 0.009,-0.1213556 0.0653,-0.1919111 0.0903,-0.077611 0.48613,-0.2645834 0.84526,-0.4254501 C 44.07041,4.9805279 43.86686,4.8627005 43.67072,4.6425671 43.45129,4.3920949 43.3444,3.999806 43.37086,3.6364449 43.41176,3.0769393 43.7134,2.6680698 44.11557,2.3974892 44.40908,2.2126337 44.74246,2.0591753 45.09735,2.0852809 l 0.008,3.527e-4"
       style="fill:#752f8b;fill-opacity:1;fill-rule:nonzero;stroke:none;stroke-width:0.0352778"
       id="path1821" /><path
       d="m 48.75282,0.48120044 c 0.21696,0.0345722 0.32738,0.26035002 0.29175,0.4815417 -0.049,0.31397216 -0.2794,0.46672496 -0.49671,0.43215276 -0.20038,-0.03175 -0.34008,-0.2338917 -0.30057,-0.48295277 0.0512,-0.32314446 0.31292,-0.46143336 0.49742,-0.4321528 z M 47.8169,3.2476839 c -10e-4,-0.047625 -0.0469,-0.083608 -0.42827,-0.2194278 -0.0317,-0.014464 -0.037,-0.034219 -0.005,-0.076906 0.0854,-0.1566334 0.0963,-0.1735667 0.14005,-0.1763889 0.34396,-0.068086 0.65934,-0.1601612 1.04916,-0.2405945 0.0176,-0.006 0.0261,-0.00494 0.0437,-0.00212 0.0159,0.00247 0.0131,0.020814 0.005,0.0762 -0.1337,0.6226529 -0.38205,1.9177002 -0.45825,2.397478 -0.0744,0.4709583 -0.10125,0.6371167 -0.11007,0.7493 -0.004,0.1319389 0.005,0.1901473 0.0889,0.193675 0.26211,0.022931 0.32879,0.033514 0.35454,0.037394 0.025,0.00423 0.066,0.067028 0.0533,0.093839 l -0.0632,0.2360083 c -0.0166,0.053975 -0.0335,0.051506 -0.0758,0.04445 -0.24201,-0.0381 -0.47308,-0.093839 -0.74084,-0.1358194 -0.36794,-0.058914 -0.7112,-0.056797 -0.73624,-0.060325 -0.0416,-0.0067 -0.0564,-0.01905 -0.0593,-0.056797 -0.006,-0.067733 0.008,-0.1594555 0.0169,-0.2148416 0.006,-0.036689 0.024,-0.044097 0.0497,-0.039511 0.30622,0.010583 0.37783,-0.00635 0.46849,-0.257175 0.0483,-0.1435805 0.20144,-0.7817556 0.27729,-1.3659556 l 0.13052,-0.9824862"
       style="fill:#752f8b;fill-opacity:1;fill-rule:nonzero;stroke:none;stroke-width:0.0352778"
       id="path1823" /><path
       d="m 49.08479,6.2226591 c 0.27975,-0.035278 0.3937,-0.073731 0.48083,-0.3118556 0.11007,-0.2610555 0.26212,-0.7923389 0.37465,-1.2361334 0.0903,-0.3531306 0.15664,-0.6833306 0.1898,-0.8484306 0.0229,-0.090664 -7.1e-4,-0.1354667 -0.35278,-0.3309056 -0.0215,-0.053622 -0.043,-0.039511 0.0275,-0.1760361 0.006,-0.027517 0.0356,-0.038806 0.09,-0.044803 0.40075,-0.1005416 0.81703,-0.2268361 0.86712,-0.2522361 0.0293,-0.011642 0.0646,-0.012347 0.097,-0.00423 0.0409,0.010583 0.0751,0.047978 0.066,0.083961 -0.0307,0.1562806 -0.0667,0.3302 -0.10513,0.4850695 -0.0116,0.04445 -0.0127,0.083255 0.0201,0.091722 0.41874,-0.1347611 0.57573,-0.1721556 0.82514,-0.2247195 0.14993,-0.039158 0.34432,-0.047625 0.49213,-0.010231 0.23742,0.060325 0.38559,0.1658055 0.50729,0.3411361 0.16722,0.2353028 0.19897,0.59055 0.133,0.9884834 -0.0321,0.1943806 -0.0875,0.4120445 -0.18627,0.8015112 -0.16792,0.6614583 -0.25893,1.0526889 -0.31115,1.2615334 -0.0212,0.081492 -0.0152,0.092428 0.01,0.098778 0.0737,0.01905 0.31891,0.051505 0.44379,0.074083 0.0247,0.00635 0.0321,0.046919 0.018,0.1016 -0.0134,0.053622 -0.0706,0.174625 -0.0879,0.2088445 -0.0279,0.041275 -0.0441,0.036689 -0.0772,0.028222 -0.73025,-0.1848556 -0.98567,-0.2113139 -1.29717,-0.2903361 -0.0494,-0.013053 -0.0907,-0.023283 -0.0896,-0.061736 l 0.005,-0.1915583 C 51.48564,6.7744059 51.595,6.7250169 51.69166,6.4798363 51.80173,6.218428 51.89486,5.885053 52.0582,5.2412335 52.18555,4.743464 52.24164,4.4877001 52.1101,4.2135917 52.018,4.0259139 51.85574,3.9077334 51.61762,3.8470556 c -0.1965,-0.050094 -0.54046,-0.00212 -0.75106,0.069497 -0.0893,0.045156 -0.11219,0.097014 -0.14535,0.1947334 -0.097,0.3129139 -0.4258,1.6086667 -0.54963,2.0979695 -0.03,0.1174751 -0.0187,0.1400528 0.38982,0.3206751 0.0466,0.021519 0.0505,0.041628 0.0332,0.075847 L 50.4948,6.7927498 49.797,6.6153026 c -0.32808,-0.083256 -0.60219,-0.1044222 -0.76623,-0.1464028 -0.0162,-0.00353 -0.0198,-0.023989 -0.0102,-0.060325 l 0.0646,-0.1859139"
       style="fill:#752f8b;fill-opacity:1;fill-rule:nonzero;stroke:none;stroke-width:0.0352778"
       id="path1825" /><path
       d="m 55.995,5.7245369 c 0.0903,-0.2458862 -0.0628,-0.760589 -0.39617,-0.8840612 -0.048,-0.017286 -0.13688,-0.020461 -0.23107,0.014464 -0.29492,0.091017 -0.59161,0.479425 -0.7112,0.8537223 0.40358,0.02928 0.79481,0.094192 1.1878,0.1294694 0.0621,0.00317 0.11148,-0.00882 0.14676,-0.1051278 z M 56,4.6101118 c 0.24588,0.090664 0.46601,0.3513667 0.54257,0.5591528 0.0801,0.1989667 0.12347,0.4236861 0.10442,0.6956778 0.078,0.00847 0.24518,0.020814 0.25576,0.064911 0.0173,0.026106 0.007,0.052564 -0.0134,0.084667 -0.0529,0.06985 -0.16687,0.2074333 -0.24483,0.1986139 -0.59126,-0.059267 -1.69651,-0.2180167 -2.08033,-0.2296583 -0.043,-0.006 -0.0751,0.03175 -0.11395,0.1372305 -0.29668,0.8766529 -0.008,1.3917084 0.51576,1.5853835 0.36548,0.1347611 0.73625,0.082197 1.10314,-0.081139 0.0536,-0.020461 0.14817,0.014464 0.13088,0.0381 -0.0857,0.2074333 -0.12418,0.2628194 -0.19121,0.2980972 -0.4579,0.1894417 -0.89605,0.2271889 -1.19873,0.2151945 -0.11572,-0.00282 -0.22261,-0.032103 -0.30974,-0.064558 -0.55563,-0.2053167 -0.77717,-0.7055556 -0.82727,-0.8632473 -0.0723,-0.1961444 -0.16051,-0.66675 0.0505,-1.2364861 0.28469,-0.7722306 0.90593,-1.2096751 1.45838,-1.3850057 0.25683,-0.084667 0.58844,-0.1016 0.81033,-0.019756 l 0.008,0.00282"
       style="fill:#752f8b;fill-opacity:1;fill-rule:nonzero;stroke:none;stroke-width:0.0352778"
       id="path1827" /><path
       d="m 59.31746,7.1889175 c 0.11254,-0.2360083 0.007,-0.7623528 -0.31468,-0.9151056 -0.0455,-0.02152 -0.13441,-0.033161 -0.23107,-0.0067 -0.30233,0.0635 -0.63253,0.4236861 -0.78599,0.7852834 0.3997,0.066322 0.78388,0.1661583 1.17193,0.2367139 0.061,0.00811 0.11148,0.00141 0.15593,-0.091017 z m 0.10548,-1.1087806 c 0.23707,0.1128889 0.43215,0.3919361 0.49001,0.6053667 0.0617,0.2056694 0.0843,0.4335639 0.0413,0.7027334 0.0762,0.015522 0.24166,0.042333 0.24871,0.087136 0.0148,0.027869 0.002,0.053269 -0.0208,0.083608 -0.0593,0.064911 -0.18486,0.1919111 -0.26176,0.1756834 -0.5842,-0.1121834 -1.67041,-0.370064 -2.05176,-0.4166306 -0.042,-0.00988 -0.0776,0.0254 -0.12523,0.1266472 -0.37465,0.8466667 -0.13441,1.3853584 0.37041,1.6252473 0.35137,0.1672167 0.72567,0.1485195 1.10596,0.018345 0.0547,-0.01517 0.1464,0.028575 0.127,0.050094 -0.10442,0.1989667 -0.14746,0.250825 -0.21731,0.2794 C 58.65639,9.565934 58.21613,9.5638173 57.91662,9.524659 57.80091,9.511253 57.69754,9.472448 57.61288,9.432231 57.07807,9.1775255 56.90274,8.6600004 56.86746,8.4980754 c -0.0543,-0.2014361 -0.0995,-0.6783917 0.16157,-1.227314 0.35348,-0.74295 1.01247,-1.1232445 1.57727,-1.2474223 0.26353,-0.061383 0.59514,-0.049036 0.80927,0.052564 l 0.007,0.00423"
       style="fill:#752f8b;fill-opacity:1;fill-rule:nonzero;stroke:none;stroke-width:0.0352778"
       id="path1829" /><path
       d="m 59.65895,10.054532 c 0.20637,0.03351 0.25188,0.03845 0.32808,-0.057856 0.0706,-0.088547 0.19756,-0.3069167 0.60643,-1.0096501 l 0.42298,-0.727075 c 0.11289,-0.1940278 0.12629,-0.250825 -0.1076,-0.5062361 -0.0448,-0.058208 -0.0197,-0.1845028 0.0233,-0.2243667 0.39512,-0.04057 0.79834,-0.043744 1.12431,-0.081492 0.0388,0.00106 0.0917,0.010231 0.10654,0.01905 0.0293,0.016581 0.0328,0.094544 -0.024,0.1591028 -0.12982,0.2056695 -0.25965,0.3785306 -0.39335,0.625475 0.19297,0.00423 0.86995,-0.1319389 1.00753,-0.1495778 0.0984,-0.018344 0.21167,-0.027869 0.27799,0.010231 0.19015,0.1107722 0.28469,0.4360334 0.18168,0.6138334 -0.0755,0.1294694 -0.39476,0.2575278 -0.49812,0.2836333 -0.0624,0.0067 -0.11818,0.017992 -0.16157,-0.00776 -0.0445,-0.0254 -0.0568,-0.053975 -0.0624,-0.1118305 -0.007,-0.1227667 -0.0533,-0.2794001 -0.17039,-0.3474862 -0.16087,-0.093839 -0.44309,-0.062794 -0.64982,-0.010583 -0.0794,0.01905 -0.15522,0.1153583 -0.37571,0.4953 L 60.7071,10.037247 c -0.11747,0.201789 -0.17074,0.311503 -0.17215,0.36442 -0.002,0.05292 0.0134,0.09419 0.0984,0.132997 l 0.40428,0.213784 c 0.0367,0.02117 0.0427,0.07832 0.0162,0.106186 l -0.18944,0.225777 c -0.32173,-0.187677 -0.64382,-0.375002 -0.9659,-0.561975 -0.19015,-0.110772 -0.38242,-0.20073 -0.43392,-0.230364 -0.0296,-0.01729 -0.0296,-0.05009 0.0205,-0.08573 l 0.17392,-0.147813"
       style="fill:#752f8b;fill-opacity:1;fill-rule:nonzero;stroke:none;stroke-width:0.0352778"
       id="path1831" /><path
       d="m 65.95639,7.4044647 c 0.18309,0.1227667 0.18803,0.3739445 0.0635,0.560564 C 65.84244,8.2285537 65.56974,8.270887 65.38736,8.1484731 65.21802,8.0355842 65.17604,7.7935786 65.31676,7.5836759 65.49879,7.312037 65.79477,7.2965147 65.94964,7.4002314 Z m -2.01084,2.1184307 c 0.0187,-0.043392 -0.007,-0.094897 -0.29633,-0.3785306 -0.0229,-0.026458 -0.0198,-0.046919 0.0279,-0.071261 0.14252,-0.1072444 0.16016,-0.1178278 0.20038,-0.1019528 0.34184,0.082903 0.66604,0.1312334 1.05374,0.2218973 0.0187,0.00176 0.0265,0.00635 0.0406,0.015875 0.0141,0.00953 0.004,0.025047 -0.0282,0.071614 -0.3817,0.5090583 -1.15076,1.5804447 -1.42169,1.9840217 -0.26529,0.396523 -0.35913,0.53587 -0.41346,0.633589 -0.0593,0.118181 -0.0762,0.17392 -0.001,0.213431 0.22825,0.13088 0.28434,0.168275 0.30586,0.182739 0.0208,0.01376 0.0325,0.0889 0.009,0.107597 l -0.15663,0.187325 c -0.0381,0.04198 -0.0522,0.03281 -0.0871,0.0092 -0.2039,-0.136525 -0.39052,-0.284339 -0.61524,-0.434975 -0.30974,-0.207433 -0.62195,-0.34925 -0.64347,-0.363008 -0.0346,-0.02399 -0.0437,-0.04128 -0.03,-0.07726 0.0226,-0.0635 0.0744,-0.141112 0.10548,-0.187678 0.0212,-0.0314 0.0406,-0.02928 0.061,-0.01482 0.27446,0.138289 0.34643,0.152753 0.5341,-0.03634 0.10443,-0.110067 0.51083,-0.626181 0.8248,-1.124303 l 0.53022,-0.8371414"
       style="fill:#752f8b;fill-opacity:1;fill-rule:nonzero;stroke:none;stroke-width:0.0352778"
       id="path1833" /><path
       d="m 63.84501,12.755751 c 0.26952,0.0829 0.38982,0.09455 0.56691,-0.08749 0.20709,-0.193322 0.56339,-0.614891 0.84773,-0.973314 0.22684,-0.28575 0.42263,-0.559858 0.5207,-0.696736 0.0579,-0.07338 0.055,-0.123119 -0.18627,-0.446617 0.002,-0.0575 -0.0226,-0.05327 0.0974,-0.149225 0.0173,-0.02187 0.0487,-0.02081 0.10019,-0.0042 0.40675,0.07232 0.83785,0.128411 0.89464,0.125942 0.031,7.05e-4 0.0639,0.01446 0.09,0.03598 0.0335,0.02611 0.0494,0.07408 0.0258,0.103717 -0.0914,0.129469 -0.19579,0.273755 -0.29457,0.398286 -0.0293,0.03669 -0.0455,0.07126 -0.019,0.09207 0.43674,0.04868 0.59585,0.07938 0.84455,0.133703 0.15311,0.0254 0.33373,0.09737 0.45297,0.191911 0.19191,0.152753 0.28434,0.309386 0.32315,0.518936 0.0561,0.283633 -0.06,0.620536 -0.28364,0.956381 -0.10865,0.164041 -0.24835,0.340077 -0.49812,0.655108 -0.42404,0.534106 -0.66746,0.854428 -0.80116,1.023056 -0.0519,0.06562 -0.0515,0.07796 -0.0318,0.09384 0.0603,0.04763 0.26988,0.178152 0.375,0.249766 0.0198,0.01552 0.0102,0.05539 -0.0254,0.09913 -0.0346,0.0441 -0.13546,0.131233 -0.1651,0.154869 -0.0427,0.02611 -0.0557,0.01587 -0.0825,-0.0053 -0.59019,-0.468137 -0.81244,-0.596548 -1.06397,-0.796573 -0.0402,-0.03175 -0.073,-0.05785 -0.0564,-0.09243 l 0.0829,-0.172862 c 0.25082,0.07937 0.36971,0.07867 0.5595,-0.10548 0.20708,-0.193322 0.42863,-0.458611 0.84138,-0.978959 0.31961,-0.402519 0.47519,-0.613127 0.46813,-0.916869 -0.007,-0.208845 -0.10654,-0.382764 -0.2988,-0.53587 -0.15946,-0.125941 -0.49283,-0.223308 -0.71367,-0.243769 -0.10019,0.0039 -0.14217,0.04198 -0.21237,0.117828 -0.21661,0.24518 -1.04775,1.292578 -1.36137,1.688042 -0.0755,0.09525 -0.0737,0.120297 0.22366,0.452613 0.0346,0.03881 0.0293,0.05891 -3.5e-4,0.0822 l -0.16757,0.129822 -0.56374,-0.44697 c -0.26529,-0.210608 -0.50624,-0.342194 -0.63853,-0.447675 -0.0134,-0.01058 -0.009,-0.03069 0.0148,-0.05927 l 0.13511,-0.143581"
       style="fill:#752f8b;fill-opacity:1;fill-rule:nonzero;stroke:none;stroke-width:0.0352778"
       id="path1835" /><path
       d="m 70.01192,15.671107 c 0.20743,-0.2159 0.43109,-0.545747 0.50235,-0.826911 0.0632,-0.23742 0.0483,-0.588786 -0.22577,-0.852664 -0.10972,-0.105481 -0.25259,-0.1524 -0.45368,-0.151342 -0.20037,-0.01129 -0.43709,0.137231 -0.61877,0.325967 -0.25259,0.262819 -0.47307,0.699558 -0.45755,1.025172 0.0131,0.388761 0.11465,0.564445 0.22437,0.669925 0.22613,0.216959 0.58843,0.267759 1.0227,-0.183092 z m -3.38102,2.415822 c 0.35419,0.339725 0.68862,0.480484 1.00894,0.477309 0.23213,0.0028 0.45332,-0.0441 0.6089,-0.205317 0.0907,-0.0949 0.18168,-0.201789 0.15698,-0.420158 -0.0307,-0.236714 -0.16863,-0.447323 -0.38206,-0.652639 -0.21343,-0.205317 -0.49565,-0.424745 -0.6805,-0.537986 -0.0737,-0.0448 -0.19262,-0.06879 -0.387,-0.06138 -0.30127,-0.0042 -0.53129,0.111831 -0.62795,0.213078 -0.11712,0.121708 -0.31326,0.594078 0.29669,1.1811 z m 4.19805,-4.120092 c 0.15911,0.1524 0.27058,0.415573 0.32138,0.581378 0.0106,0.07514 0.066,0.115006 0.078,0.126647 0.10371,0.09984 0.53481,0.359128 0.66393,0.482953 0.0483,0.04692 0.0571,0.17145 0.0374,0.204611 -0.0134,0.02575 -0.15028,0.205317 -0.17639,0.232128 -0.0395,0.04057 -0.10865,0.05186 -0.18838,-0.01199 -0.0667,-0.06421 -0.25647,-0.234245 -0.51788,-0.498828 -0.0642,0.249414 -0.21802,0.555978 -0.39934,0.744714 -0.45332,0.471311 -1.16629,0.589139 -1.83692,0.34678 -0.31679,-0.122766 -0.53446,-0.176741 -0.74648,-0.225425 -0.0564,-0.01482 -0.11959,0.01482 -0.13934,0.03492 -0.11677,0.121356 -0.0286,0.322792 0.13617,0.480837 0.0734,0.07056 0.4706,0.426861 0.52528,0.479777 0.25612,0.246592 0.45579,0.503414 0.5013,0.871009 0.0198,0.162278 -0.0628,0.406753 -0.28293,0.636058 -0.20743,0.215547 -0.37288,0.276931 -0.75141,0.341136 -0.71932,0.112536 -1.10984,-0.04304 -1.3268,-0.122414 -0.19191,-0.08114 -0.51788,-0.303741 -0.69497,-0.47378 -0.66464,-0.639939 -0.5902,-1.242484 -0.33126,-1.512006 0.22084,-0.2286 0.48719,-0.335492 0.7373,-0.30233 0.26953,0.0254 0.4819,0.04833 0.79446,0.0896 -0.13864,-0.380294 -0.20144,-0.608542 -0.006,-0.810683 0.0582,-0.06068 0.084,-0.08784 0.17216,-0.106186 0.11959,-0.0018 0.54327,0.107244 0.92251,0.213077 -0.13723,-0.236008 -0.21802,-0.456494 -0.22825,-0.751416 -0.009,-0.333023 0.15946,-0.703439 0.41205,-0.965906 0.38876,-0.403931 0.88194,-0.526344 1.36419,-0.477308 0.34396,0.04551 0.69885,0.140052 0.95497,0.386644 l 0.006,0.006"
       style="fill:#752f8b;fill-opacity:1;fill-rule:nonzero;stroke:none;stroke-width:0.0352778"
       id="path1837" /></g></svg>
